# MagicaVoxel @ Ephtracy

# group
o 

# material
mtllib Plant3.mtl
usemtl palette

# normals
vn -1 0 0
vn 1 0 0
vn 0 0 1
vn 0 0 -1
vn 0 -1 0
vn 0 1 0

# texcoords
vt 0.0175781 0.5
vt 0.896484 0.5
vt 0.958984 0.5

# verts
v -0.3 0.2 0.2
v -0.3 0.2 0.1
v -0.3 0.3 0.2
v -0.3 0.3 0.1
v -0.3 0.3 0
v -0.3 0.4 0.1
v -0.3 0.4 0
v -0.2 -5.96046e-008 0.1
v -0.2 -5.96046e-008 0
v -0.2 0.1 0.2
v -0.2 0.1 0.1
v -0.2 0.1 0
v -0.2 0.2 0.2
v -0.2 0.2 0.1
v -0.2 0.2 0
v -0.2 0.2 -0.1
v -0.2 0.3 0.1
v -0.2 0.3 0
v -0.2 0.4 0
v -0.2 0.5 0
v -0.2 0.5 -0.1
v -0.1 -0.1 0.1
v -0.1 -0.1 -0.1
v -0.1 -5.96046e-008 0.2
v -0.1 -5.96046e-008 0.1
v -0.1 -5.96046e-008 0
v -0.1 -5.96046e-008 -0.1
v -0.1 0.1 0.3
v -0.1 0.1 0.2
v -0.1 0.1 0.1
v -0.1 0.2 0.3
v -0.1 0.2 0.2
v -2.98023e-008 -0.2 0.1
v -2.98023e-008 -0.2 -0.1
v -2.98023e-008 -0.1 0.2
v -2.98023e-008 -0.1 0.1
v -2.98023e-008 -0.1 -0.1
v -2.98023e-008 -5.96046e-008 0.2
v -2.98023e-008 -5.96046e-008 0.1
v -2.98023e-008 -5.96046e-008 0
v -2.98023e-008 -5.96046e-008 -0.1
v -2.98023e-008 0.1 0
v -2.98023e-008 0.1 -0.1
v -2.98023e-008 0.2 0.2
v -2.98023e-008 0.2 0.1
v -2.98023e-008 0.3 0.2
v -2.98023e-008 0.3 0.1
v -2.98023e-008 0.3 0
v -2.98023e-008 0.4 0.1
v -2.98023e-008 0.4 0
v 0.1 -0.3 0.2
v 0.1 -0.3 0
v 0.1 -0.2 0.3
v 0.1 -0.2 0.2
v 0.1 -0.2 0.1
v 0.1 -0.2 0
v 0.1 -0.2 -0.1
v 0.1 -0.2 -0.2
v 0.1 -0.1 0.3
v 0.1 -0.1 0.2
v 0.1 -0.1 0.1
v 0.1 0.1 0.1
v 0.1 0.1 -0.1
v 0.1 0.1 -0.2
v 0.1 0.2 0.1
v 0.1 0.2 0
v 0.1 0.2 -0.1
v 0.2 -0.4 0.3
v 0.2 -0.4 0.1
v 0.2 -0.3 0.2
v 0.2 -0.3 0.1
v 0.2 -0.3 0
v 0.2 -0.3 -0.2
v 0.2 -0.2 0.4
v 0.2 -0.2 0.3
v 0.2 -0.2 0.2
v 0.2 -0.2 0
v 0.2 -0.2 -0.2
v 0.2 -0.1 0.4
v 0.2 -0.1 0.3
v 0.2 -0.1 0.2
v 0.2 -5.96046e-008 0.3
v 0.2 -5.96046e-008 0.2
v 0.2 -5.96046e-008 0.1
v 0.2 0.1 0.2
v 0.2 0.1 0.1
v 0.3 -0.5 0.2
v 0.3 -0.5 0.1
v 0.3 -0.4 0.2
v 0.3 -0.4 0.1
v 0.3 -0.4 -0.1
v 0.3 -0.4 -0.2
v 0.3 -0.3 0.4
v 0.3 -0.3 0.3
v 0.3 -0.3 -0.1
v 0.3 -0.3 -0.2
v 0.3 -0.2 0.4
v 0.3 -0.2 0.3
v 0.3 0.1 -0.1
v 0.3 0.1 -0.2
v 0.3 0.2 0.1
v 0.3 0.2 -0.1
v 0.3 0.2 -0.2
v 0.3 0.3 0.1
v 0.3 0.3 -0.1
v 0.4 -0.6 0.3
v 0.4 -0.6 0.1
v 0.4 -0.5 0.4
v 0.4 -0.5 0.3
v 0.4 -0.5 0.2
v 0.4 -0.5 0.1
v 0.4 -0.4 0.3
v 0.4 -0.4 0.2
v 0.4 -0.4 0.1
v 0.4 -0.4 -0.1
v 0.4 -0.3 0.4
v 0.4 -0.3 0.3
v 0.4 -0.3 0.1
v 0.4 -0.3 -0.1
v 0.4 -0.2 -0.2
v 0.4 -0.2 -0.3
v 0.4 -5.96046e-008 0.3
v 0.4 -5.96046e-008 0.2
v 0.4 0.1 0.3
v 0.4 0.1 0.2
v 0.4 0.2 -0.2
v 0.4 0.2 -0.3
v 0.4 0.3 0.1
v 0.4 0.3 -0.1
v 0.4 0.4 0.1
v 0.4 0.4 -0.1
v 0.5 -0.5 0.1
v 0.5 -0.5 0
v 0.5 -0.4 0.1
v 0.5 -0.4 0
v 0.5 0.1 0.2
v 0.5 0.1 0.1
v 0.5 0.2 0.2
v 0.5 0.2 0.1
v 0.5 0.4 0.1
v 0.5 0.4 -0.1
v 0.5 0.5 0.1
v 0.5 0.5 -0.1
v -0.2 0.2 0.2
v -0.2 0.2 0.1
v -0.2 0.3 0.2
v -0.2 0.3 0.1
v -0.2 0.3 0
v -0.2 0.4 0.1
v -0.2 0.4 0
v -0.1 0.2 0
v -0.1 0.2 -0.1
v -0.1 0.3 0
v -0.1 0.3 -0.1
v -0.1 0.4 0
v -0.1 0.4 -0.1
v -0.1 0.5 0
v -0.1 0.5 -0.1
v -2.98023e-008 -5.96046e-008 0.2
v -2.98023e-008 -5.96046e-008 0.1
v -2.98023e-008 0.1 0.3
v -2.98023e-008 0.1 0.2
v -2.98023e-008 0.1 0.1
v -2.98023e-008 0.1 0
v -2.98023e-008 0.2 0.3
v -2.98023e-008 0.2 0.2
v -2.98023e-008 0.2 0
v 0.1 0.2 0.2
v 0.1 0.2 0.1
v 0.1 0.2 0
v 0.1 0.3 0.2
v 0.1 0.3 0.1
v 0.1 0.3 0
v 0.1 0.3 -0.1
v 0.1 0.4 0.1
v 0.1 0.4 -0.1
v 0.6 -0.6 0.3
v 0.6 -0.6 0.1
v 0.6 -0.5 0.4
v 0.6 -0.5 0.3
v 0.6 -0.5 0.1
v 0.6 -0.5 0
v 0.6 -0.4 0
v 0.6 -0.4 -0.2
v 0.6 -0.2 -0.2
v 0.6 -0.2 -0.3
v 0.6 -0.1 0.4
v 0.6 -0.1 0.3
v 0.6 0.1 0.3
v 0.6 0.1 0.2
v 0.6 0.2 0.2
v 0.6 0.2 0.1
v 0.6 0.2 -0.1
v 0.6 0.2 -0.3
v 0.6 0.5 0.1
v 0.6 0.5 -0.1
v 0.2 -0.2 0.4
v 0.2 -0.1 0.4
v 0.3 -0.3 0.4
v 0.3 -0.2 0.4
v 0.4 -0.5 0.4
v 0.4 -0.3 0.4
v 0.6 -0.5 0.4
v 0.6 -0.1 0.4
v -0.1 0.1 0.3
v -0.1 0.2 0.3
v -2.98023e-008 0.1 0.3
v -2.98023e-008 0.2 0.3
v 0.1 -0.2 0.3
v 0.1 -0.1 0.3
v 0.2 -0.4 0.3
v 0.2 -0.2 0.3
v 0.2 -0.1 0.3
v 0.2 -5.96046e-008 0.3
v 0.3 -0.3 0.3
v 0.3 -0.2 0.3
v 0.4 -0.6 0.3
v 0.4 -0.5 0.3
v 0.4 -0.4 0.3
v 0.4 -0.3 0.3
v 0.4 -5.96046e-008 0.3
v 0.4 0.1 0.3
v 0.6 -0.6 0.3
v 0.6 -0.5 0.3
v 0.6 -0.1 0.3
v 0.6 0.1 0.3
v -0.3 0.2 0.2
v -0.3 0.3 0.2
v -0.2 0.1 0.2
v -0.2 0.2 0.2
v -0.2 0.3 0.2
v -0.1 -5.96046e-008 0.2
v -0.1 0.1 0.2
v -0.1 0.2 0.2
v -2.98023e-008 -0.1 0.2
v -2.98023e-008 -5.96046e-008 0.2
v -2.98023e-008 0.1 0.2
v -2.98023e-008 0.2 0.2
v -2.98023e-008 0.3 0.2
v 0.1 -0.3 0.2
v 0.1 -0.2 0.2
v 0.1 -0.1 0.2
v 0.1 0.2 0.2
v 0.1 0.3 0.2
v 0.2 -0.3 0.2
v 0.2 -0.2 0.2
v 0.2 -0.1 0.2
v 0.2 -5.96046e-008 0.2
v 0.2 0.1 0.2
v 0.3 -0.5 0.2
v 0.3 -0.4 0.2
v 0.4 -0.5 0.2
v 0.4 -0.4 0.2
v 0.4 -5.96046e-008 0.2
v 0.4 0.1 0.2
v 0.5 0.1 0.2
v 0.5 0.2 0.2
v 0.6 0.1 0.2
v 0.6 0.2 0.2
v -0.3 0.3 0.1
v -0.3 0.4 0.1
v -0.2 -5.96046e-008 0.1
v -0.2 0.1 0.1
v -0.2 0.2 0.1
v -0.2 0.3 0.1
v -0.2 0.4 0.1
v -0.1 -0.1 0.1
v -0.1 -5.96046e-008 0.1
v -0.1 0.1 0.1
v -2.98023e-008 -0.2 0.1
v -2.98023e-008 -0.1 0.1
v -2.98023e-008 -5.96046e-008 0.1
v -2.98023e-008 0.1 0.1
v -2.98023e-008 0.2 0.1
v -2.98023e-008 0.3 0.1
v -2.98023e-008 0.4 0.1
v 0.1 -0.2 0.1
v 0.1 -0.1 0.1
v 0.1 0.1 0.1
v 0.1 0.2 0.1
v 0.1 0.3 0.1
v 0.1 0.4 0.1
v 0.2 -5.96046e-008 0.1
v 0.2 0.1 0.1
v 0.3 0.2 0.1
v 0.3 0.3 0.1
v 0.4 0.3 0.1
v 0.4 0.4 0.1
v 0.5 0.1 0.1
v 0.5 0.2 0.1
v 0.5 0.4 0.1
v 0.5 0.5 0.1
v 0.6 0.2 0.1
v 0.6 0.5 0.1
v -0.2 0.3 0
v -0.2 0.4 0
v -0.2 0.5 0
v -0.1 0.4 0
v -0.1 0.5 0
v -2.98023e-008 0.3 0
v -2.98023e-008 0.4 0
v 0.3 -0.4 -0.1
v 0.3 -0.3 -0.1
v 0.4 -0.4 -0.1
v 0.4 -0.3 -0.1
v -0.3 0.2 0.1
v -0.3 0.3 0.1
v -0.2 0.2 0.1
v -0.2 0.3 0.1
v 0.2 -0.4 0.1
v 0.2 -0.3 0.1
v 0.3 -0.5 0.1
v 0.3 -0.4 0.1
v 0.4 -0.6 0.1
v 0.4 -0.5 0.1
v 0.4 -0.4 0.1
v 0.4 -0.3 0.1
v 0.5 -0.5 0.1
v 0.5 -0.4 0.1
v 0.6 -0.6 0.1
v 0.6 -0.5 0.1
v -0.3 0.3 0
v -0.3 0.4 0
v -0.2 -5.96046e-008 0
v -0.2 0.1 0
v -0.2 0.2 0
v -0.2 0.3 0
v -0.2 0.4 0
v -0.1 -5.96046e-008 0
v -0.1 0.2 0
v -0.1 0.3 0
v -2.98023e-008 -5.96046e-008 0
v -2.98023e-008 0.1 0
v -2.98023e-008 0.2 0
v -2.98023e-008 0.3 0
v 0.1 -0.3 0
v 0.1 -0.2 0
v 0.1 0.2 0
v 0.1 0.3 0
v 0.2 -0.3 0
v 0.2 -0.2 0
v 0.5 -0.5 0
v 0.5 -0.4 0
v 0.6 -0.5 0
v 0.6 -0.4 0
v -0.2 0.2 -0.1
v -0.2 0.5 -0.1
v -0.1 -0.1 -0.1
v -0.1 -5.96046e-008 -0.1
v -0.1 0.2 -0.1
v -0.1 0.3 -0.1
v -0.1 0.4 -0.1
v -0.1 0.5 -0.1
v -2.98023e-008 -0.2 -0.1
v -2.98023e-008 -0.1 -0.1
v -2.98023e-008 -5.96046e-008 -0.1
v -2.98023e-008 0.1 -0.1
v 0.1 -0.2 -0.1
v 0.1 0.1 -0.1
v 0.1 0.2 -0.1
v 0.1 0.3 -0.1
v 0.1 0.4 -0.1
v 0.3 0.1 -0.1
v 0.3 0.2 -0.1
v 0.3 0.3 -0.1
v 0.4 0.3 -0.1
v 0.4 0.4 -0.1
v 0.5 0.4 -0.1
v 0.5 0.5 -0.1
v 0.6 0.2 -0.1
v 0.6 0.5 -0.1
v 0.1 -0.2 -0.2
v 0.1 0.1 -0.2
v 0.2 -0.3 -0.2
v 0.2 -0.2 -0.2
v 0.3 -0.4 -0.2
v 0.3 -0.3 -0.2
v 0.3 0.1 -0.2
v 0.3 0.2 -0.2
v 0.4 -0.2 -0.2
v 0.4 0.2 -0.2
v 0.6 -0.4 -0.2
v 0.6 -0.2 -0.2
v 0.4 -0.2 -0.3
v 0.4 0.2 -0.3
v 0.6 -0.2 -0.3
v 0.6 0.2 -0.3
v 0.4 -0.6 0.3
v 0.6 -0.6 0.3
v 0.4 -0.6 0.1
v 0.6 -0.6 0.1
v 0.4 -0.5 0.4
v 0.6 -0.5 0.4
v 0.4 -0.5 0.3
v 0.6 -0.5 0.3
v 0.3 -0.5 0.2
v 0.4 -0.5 0.2
v 0.3 -0.5 0.1
v 0.4 -0.5 0.1
v 0.5 -0.5 0.1
v 0.6 -0.5 0.1
v 0.5 -0.5 0
v 0.6 -0.5 0
v 0.2 -0.4 0.3
v 0.4 -0.4 0.3
v 0.3 -0.4 0.2
v 0.4 -0.4 0.2
v 0.2 -0.4 0.1
v 0.3 -0.4 0.1
v 0.4 -0.4 0.1
v 0.5 -0.4 0.1
v 0.5 -0.4 0
v 0.6 -0.4 0
v 0.3 -0.4 -0.1
v 0.4 -0.4 -0.1
v 0.3 -0.4 -0.2
v 0.6 -0.4 -0.2
v 0.3 -0.3 0.4
v 0.4 -0.3 0.4
v 0.3 -0.3 0.3
v 0.4 -0.3 0.3
v 0.1 -0.3 0.2
v 0.2 -0.3 0.2
v 0.2 -0.3 0.1
v 0.4 -0.3 0.1
v 0.1 -0.3 0
v 0.2 -0.3 0
v 0.3 -0.3 -0.1
v 0.4 -0.3 -0.1
v 0.2 -0.3 -0.2
v 0.3 -0.3 -0.2
v 0.2 -0.2 0.4
v 0.3 -0.2 0.4
v 0.1 -0.2 0.3
v 0.2 -0.2 0.3
v 0.3 -0.2 0.3
v 0.1 -0.2 0.2
v 0.2 -0.2 0.2
v -2.98023e-008 -0.2 0.1
v 0.1 -0.2 0.1
v 0.1 -0.2 0
v 0.2 -0.2 0
v -2.98023e-008 -0.2 -0.1
v 0.1 -0.2 -0.1
v 0.1 -0.2 -0.2
v 0.2 -0.2 -0.2
v 0.4 -0.2 -0.2
v 0.6 -0.2 -0.2
v 0.4 -0.2 -0.3
v 0.6 -0.2 -0.3
v -2.98023e-008 -0.1 0.2
v 0.1 -0.1 0.2
v -0.1 -0.1 0.1
v -2.98023e-008 -0.1 0.1
v 0.1 -0.1 0.1
v -0.1 -0.1 -0.1
v -2.98023e-008 -0.1 -0.1
v -0.1 -5.96046e-008 0.2
v -2.98023e-008 -5.96046e-008 0.2
v -0.2 -5.96046e-008 0.1
v -0.1 -5.96046e-008 0.1
v -2.98023e-008 -5.96046e-008 0.1
v -0.2 -5.96046e-008 0
v -0.1 -5.96046e-008 0
v -0.1 0.1 0.3
v -2.98023e-008 0.1 0.3
v -0.2 0.1 0.2
v -0.1 0.1 0.2
v -2.98023e-008 0.1 0.2
v -0.2 0.1 0.1
v -0.1 0.1 0.1
v -0.3 0.2 0.2
v -0.2 0.2 0.2
v -2.98023e-008 0.2 0.2
v 0.1 0.2 0.2
v -0.3 0.2 0.1
v -0.2 0.2 0.1
v 0.1 0.2 0.1
v -0.2 0.2 0
v -0.1 0.2 0
v -2.98023e-008 0.2 0
v 0.1 0.2 0
v -0.2 0.2 -0.1
v -0.1 0.2 -0.1
v -0.3 0.3 0.1
v -0.2 0.3 0.1
v -0.3 0.3 0
v -0.2 0.3 0
v -0.1 0.3 0
v -2.98023e-008 0.3 0
v 0.1 0.3 0
v -0.1 0.3 -0.1
v 0.1 0.3 -0.1
v 0.2 -0.1 0.4
v 0.6 -0.1 0.4
v 0.1 -0.1 0.3
v 0.2 -0.1 0.3
v 0.6 -0.1 0.3
v 0.1 -0.1 0.2
v 0.2 -0.1 0.2
v 0.2 -5.96046e-008 0.3
v 0.4 -5.96046e-008 0.3
v -2.98023e-008 -5.96046e-008 0.2
v 0.2 -5.96046e-008 0.2
v 0.4 -5.96046e-008 0.2
v -2.98023e-008 -5.96046e-008 0.1
v 0.2 -5.96046e-008 0.1
v -0.1 -5.96046e-008 0
v -2.98023e-008 -5.96046e-008 0
v -0.1 -5.96046e-008 -0.1
v -2.98023e-008 -5.96046e-008 -0.1
v 0.4 0.1 0.3
v 0.6 0.1 0.3
v 0.2 0.1 0.2
v 0.4 0.1 0.2
v 0.5 0.1 0.2
v 0.6 0.1 0.2
v -2.98023e-008 0.1 0.1
v 0.1 0.1 0.1
v 0.2 0.1 0.1
v 0.5 0.1 0.1
v -2.98023e-008 0.1 0
v -2.98023e-008 0.1 -0.1
v 0.1 0.1 -0.1
v 0.3 0.1 -0.1
v 0.1 0.1 -0.2
v 0.3 0.1 -0.2
v -0.1 0.2 0.3
v -2.98023e-008 0.2 0.3
v -0.2 0.2 0.2
v -0.1 0.2 0.2
v -2.98023e-008 0.2 0.2
v 0.5 0.2 0.2
v 0.6 0.2 0.2
v -0.2 0.2 0.1
v -2.98023e-008 0.2 0.1
v 0.1 0.2 0.1
v 0.3 0.2 0.1
v 0.5 0.2 0.1
v 0.6 0.2 0.1
v 0.1 0.2 0
v 0.1 0.2 -0.1
v 0.3 0.2 -0.1
v 0.6 0.2 -0.1
v 0.3 0.2 -0.2
v 0.4 0.2 -0.2
v 0.4 0.2 -0.3
v 0.6 0.2 -0.3
v -0.3 0.3 0.2
v -0.2 0.3 0.2
v -2.98023e-008 0.3 0.2
v 0.1 0.3 0.2
v -0.3 0.3 0.1
v -0.2 0.3 0.1
v -2.98023e-008 0.3 0.1
v 0.1 0.3 0.1
v 0.3 0.3 0.1
v 0.4 0.3 0.1
v -0.2 0.3 0
v -2.98023e-008 0.3 0
v 0.3 0.3 -0.1
v 0.4 0.3 -0.1
v -0.3 0.4 0.1
v -0.2 0.4 0.1
v -2.98023e-008 0.4 0.1
v 0.1 0.4 0.1
v 0.4 0.4 0.1
v 0.5 0.4 0.1
v -0.3 0.4 0
v -0.2 0.4 0
v -0.1 0.4 0
v -2.98023e-008 0.4 0
v -0.1 0.4 -0.1
v 0.1 0.4 -0.1
v 0.4 0.4 -0.1
v 0.5 0.4 -0.1
v 0.5 0.5 0.1
v 0.6 0.5 0.1
v -0.2 0.5 0
v -0.1 0.5 0
v -0.2 0.5 -0.1
v -0.1 0.5 -0.1
v 0.5 0.5 -0.1
v 0.6 0.5 -0.1

# faces
f 3/3/1 2/3/1 1/3/1
f 4/3/1 2/3/1 3/3/1
f 6/3/1 5/3/1 4/3/1
f 7/3/1 5/3/1 6/3/1
f 11/2/1 9/2/1 8/2/1
f 12/2/1 9/2/1 11/2/1
f 13/3/1 11/3/1 10/3/1
f 13/3/1 12/3/1 11/3/1
f 14/3/1 12/3/1 13/3/1
f 15/3/1 12/3/1 14/3/1
f 17/1/1 15/1/1 14/1/1
f 18/3/1 16/3/1 15/3/1
f 18/1/1 15/1/1 17/1/1
f 19/3/1 16/3/1 18/3/1
f 20/3/1 16/3/1 19/3/1
f 21/3/1 16/3/1 20/3/1
f 25/2/1 23/2/1 22/2/1
f 26/2/1 23/2/1 25/2/1
f 27/2/1 23/2/1 26/2/1
f 29/2/1 25/2/1 24/2/1
f 30/2/1 25/2/1 29/2/1
f 31/3/1 29/3/1 28/3/1
f 32/3/1 29/3/1 31/3/1
f 36/2/1 34/2/1 33/2/1
f 37/2/1 34/2/1 36/2/1
f 38/2/1 36/2/1 35/2/1
f 39/2/1 36/2/1 38/2/1
f 42/2/1 41/2/1 40/2/1
f 43/2/1 41/2/1 42/2/1
f 46/3/1 45/3/1 44/3/1
f 47/3/1 45/3/1 46/3/1
f 49/3/1 48/3/1 47/3/1
f 50/3/1 48/3/1 49/3/1
f 54/2/1 52/2/1 51/2/1
f 55/2/1 52/2/1 54/2/1
f 56/2/1 52/2/1 55/2/1
f 59/2/1 54/2/1 53/2/1
f 59/2/1 55/2/1 54/2/1
f 60/2/1 55/2/1 59/2/1
f 61/2/1 55/2/1 60/2/1
f 63/2/1 58/2/1 57/2/1
f 64/2/1 58/2/1 63/2/1
f 65/2/1 63/2/1 62/2/1
f 66/2/1 63/2/1 65/2/1
f 67/2/1 63/2/1 66/2/1
f 70/2/1 69/2/1 68/2/1
f 71/2/1 69/2/1 70/2/1
f 75/2/1 70/2/1 68/2/1
f 76/2/1 70/2/1 75/2/1
f 77/2/1 73/2/1 72/2/1
f 78/2/1 73/2/1 77/2/1
f 79/2/1 75/2/1 74/2/1
f 80/2/1 75/2/1 79/2/1
f 82/2/1 81/2/1 80/2/1
f 83/2/1 81/2/1 82/2/1
f 85/2/1 84/2/1 83/2/1
f 86/2/1 84/2/1 85/2/1
f 89/2/1 88/2/1 87/2/1
f 90/2/1 88/2/1 89/2/1
f 95/2/1 92/2/1 91/2/1
f 96/2/1 92/2/1 95/2/1
f 97/2/1 94/2/1 93/2/1
f 98/2/1 94/2/1 97/2/1
f 102/2/1 100/2/1 99/2/1
f 103/2/1 100/2/1 102/2/1
f 104/2/1 102/2/1 101/2/1
f 105/2/1 102/2/1 104/2/1
f 109/2/1 107/2/1 106/2/1
f 110/2/1 107/2/1 109/2/1
f 111/2/1 107/2/1 110/2/1
f 112/2/1 109/2/1 108/2/1
f 112/2/1 110/2/1 109/2/1
f 113/2/1 110/2/1 112/2/1
f 116/2/1 112/2/1 108/2/1
f 117/2/1 112/2/1 116/2/1
f 118/2/1 115/2/1 114/2/1
f 119/2/1 115/2/1 118/2/1
f 124/2/1 123/2/1 122/2/1
f 125/2/1 123/2/1 124/2/1
f 126/2/1 121/2/1 120/2/1
f 127/2/1 121/2/1 126/2/1
f 130/2/1 129/2/1 128/2/1
f 131/2/1 129/2/1 130/2/1
f 134/2/1 133/2/1 132/2/1
f 135/2/1 133/2/1 134/2/1
f 138/2/1 137/2/1 136/2/1
f 139/2/1 137/2/1 138/2/1
f 142/2/1 141/2/1 140/2/1
f 143/2/1 141/2/1 142/2/1
f 144/3/2 145/3/2 146/3/2
f 146/3/2 145/3/2 147/3/2
f 147/3/2 148/3/2 149/3/2
f 149/3/2 148/3/2 150/3/2
f 151/3/2 152/3/2 153/3/2
f 153/3/2 152/3/2 154/3/2
f 155/3/2 156/3/2 157/3/2
f 157/3/2 156/3/2 158/3/2
f 159/2/2 160/2/2 162/2/2
f 162/2/2 160/2/2 163/2/2
f 161/3/2 162/3/2 165/3/2
f 163/3/2 164/3/2 165/3/2
f 162/3/2 163/3/2 165/3/2
f 165/3/2 164/3/2 166/3/2
f 166/3/2 164/3/2 167/3/2
f 168/3/2 169/3/2 171/3/2
f 169/3/2 170/3/2 171/3/2
f 171/3/2 170/3/2 172/3/2
f 172/3/2 170/3/2 173/3/2
f 173/3/2 174/3/2 175/3/2
f 172/3/2 173/3/2 175/3/2
f 175/3/2 174/3/2 176/3/2
f 177/2/2 178/2/2 180/2/2
f 180/2/2 178/2/2 181/2/2
f 179/2/2 180/2/2 183/2/2
f 181/2/2 182/2/2 183/2/2
f 180/2/2 181/2/2 183/2/2
f 183/2/2 184/2/2 185/2/2
f 179/2/2 183/2/2 187/2/2
f 185/2/2 186/2/2 187/2/2
f 183/2/2 185/2/2 187/2/2
f 187/2/2 186/2/2 188/2/2
f 188/2/2 186/2/2 189/2/2
f 189/2/2 186/2/2 190/2/2
f 190/2/2 186/2/2 191/2/2
f 191/2/2 186/2/2 192/2/2
f 192/2/2 186/2/2 193/2/2
f 193/2/2 186/2/2 194/2/2
f 192/2/2 193/2/2 195/2/2
f 195/2/2 193/2/2 196/2/2
f 200/2/3 198/2/3 197/2/3
f 202/2/3 200/2/3 199/2/3
f 203/2/3 202/2/3 201/2/3
f 204/2/3 198/2/3 200/2/3
f 204/2/3 202/2/3 203/2/3
f 204/2/3 200/2/3 202/2/3
f 207/3/3 206/3/3 205/3/3
f 208/3/3 206/3/3 207/3/3
f 212/2/3 210/2/3 209/2/3
f 213/2/3 210/2/3 212/2/3
f 215/2/3 212/2/3 211/2/3
f 216/2/3 212/2/3 215/2/3
f 219/2/3 215/2/3 211/2/3
f 220/2/3 215/2/3 219/2/3
f 221/2/3 214/2/3 213/2/3
f 223/2/3 218/2/3 217/2/3
f 224/2/3 218/2/3 223/2/3
f 225/2/3 222/2/3 221/2/3
f 225/2/3 221/2/3 213/2/3
f 226/2/3 222/2/3 225/2/3
f 230/3/3 228/3/3 227/3/3
f 231/3/3 228/3/3 230/3/3
f 233/3/3 230/3/3 229/3/3
f 234/3/3 230/3/3 233/3/3
f 236/2/3 233/2/3 232/2/3
f 237/2/3 233/2/3 236/2/3
f 242/2/3 236/2/3 235/2/3
f 243/3/3 239/3/3 238/3/3
f 244/3/3 239/3/3 243/3/3
f 245/2/3 241/2/3 240/2/3
f 246/2/3 241/2/3 245/2/3
f 247/2/3 236/2/3 242/2/3
f 248/2/3 236/2/3 247/2/3
f 252/2/3 251/2/3 250/2/3
f 253/2/3 251/2/3 252/2/3
f 254/2/3 249/2/3 248/2/3
f 255/2/3 249/2/3 254/2/3
f 258/2/3 257/2/3 256/2/3
f 259/2/3 257/2/3 258/2/3
f 265/3/3 261/3/3 260/3/3
f 266/3/3 261/3/3 265/3/3
f 268/2/3 263/2/3 262/2/3
f 269/2/3 263/2/3 268/2/3
f 271/2/3 268/2/3 267/2/3
f 272/2/3 268/2/3 271/2/3
f 274/1/3 265/1/3 264/1/3
f 275/1/3 265/1/3 274/1/3
f 277/2/3 271/2/3 270/2/3
f 278/2/3 271/2/3 277/2/3
f 279/2/3 273/2/3 272/2/3
f 281/3/3 276/3/3 275/3/3
f 282/3/3 276/3/3 281/3/3
f 283/2/3 280/2/3 279/2/3
f 283/2/3 279/2/3 272/2/3
f 284/2/3 280/2/3 283/2/3
f 285/2/3 280/2/3 284/2/3
f 287/2/3 286/2/3 285/2/3
f 289/2/3 285/2/3 284/2/3
f 289/2/3 288/2/3 287/2/3
f 289/2/3 287/2/3 285/2/3
f 290/2/3 288/2/3 289/2/3
f 291/2/3 288/2/3 290/2/3
f 293/2/3 291/2/3 290/2/3
f 293/2/3 292/2/3 291/2/3
f 294/2/3 292/2/3 293/2/3
f 298/3/3 296/3/3 295/3/3
f 298/3/3 297/3/3 296/3/3
f 299/3/3 297/3/3 298/3/3
f 300/3/3 298/3/3 295/3/3
f 301/3/3 298/3/3 300/3/3
f 304/2/3 303/2/3 302/2/3
f 305/2/3 303/2/3 304/2/3
f 306/3/4 307/3/4 308/3/4
f 308/3/4 307/3/4 309/3/4
f 310/2/4 311/2/4 313/2/4
f 312/2/4 313/2/4 315/2/4
f 313/2/4 311/2/4 316/2/4
f 315/2/4 313/2/4 316/2/4
f 316/2/4 311/2/4 317/2/4
f 314/2/4 315/2/4 318/2/4
f 315/2/4 316/2/4 318/2/4
f 318/2/4 316/2/4 319/2/4
f 314/2/4 318/2/4 320/2/4
f 320/2/4 318/2/4 321/2/4
f 322/3/4 323/3/4 327/3/4
f 327/3/4 323/3/4 328/3/4
f 324/2/4 325/2/4 329/2/4
f 325/3/4 326/3/4 330/3/4
f 329/2/4 325/2/4 332/2/4
f 325/3/4 330/3/4 333/3/4
f 332/2/4 325/2/4 333/2/4
f 330/1/4 331/1/4 334/1/4
f 333/3/4 330/3/4 334/3/4
f 334/1/4 331/1/4 335/1/4
f 334/3/4 335/3/4 338/3/4
f 338/3/4 335/3/4 339/3/4
f 336/2/4 337/2/4 340/2/4
f 340/2/4 337/2/4 341/2/4
f 342/2/4 343/2/4 344/2/4
f 344/2/4 343/2/4 345/2/4
f 346/3/4 347/3/4 350/3/4
f 350/3/4 347/3/4 351/3/4
f 351/3/4 347/3/4 352/3/4
f 352/3/4 347/3/4 353/3/4
f 348/2/4 349/2/4 355/2/4
f 355/2/4 349/2/4 356/2/4
f 354/2/4 355/2/4 358/2/4
f 356/2/4 357/2/4 358/2/4
f 355/2/4 356/2/4 358/2/4
f 358/2/4 357/2/4 359/2/4
f 351/3/4 352/3/4 361/3/4
f 361/3/4 352/3/4 362/3/4
f 359/2/4 360/2/4 363/2/4
f 363/2/4 360/2/4 364/2/4
f 364/2/4 365/2/4 366/2/4
f 366/2/4 367/2/4 368/2/4
f 366/2/4 368/2/4 370/2/4
f 368/2/4 369/2/4 370/2/4
f 364/2/4 366/2/4 370/2/4
f 370/2/4 369/2/4 371/2/4
f 372/2/4 373/2/4 375/2/4
f 374/2/4 375/2/4 377/2/4
f 375/2/4 373/2/4 378/2/4
f 377/2/4 375/2/4 378/2/4
f 376/2/4 377/2/4 380/2/4
f 378/2/4 379/2/4 380/2/4
f 377/2/4 378/2/4 380/2/4
f 380/2/4 379/2/4 381/2/4
f 376/2/4 380/2/4 382/2/4
f 382/2/4 380/2/4 383/2/4
f 384/2/4 385/2/4 386/2/4
f 386/2/4 385/2/4 387/2/4
f 390/2/5 389/2/5 388/2/5
f 391/2/5 389/2/5 390/2/5
f 394/2/5 393/2/5 392/2/5
f 395/2/5 393/2/5 394/2/5
f 398/2/5 397/2/5 396/2/5
f 399/2/5 397/2/5 398/2/5
f 402/2/5 401/2/5 400/2/5
f 403/2/5 401/2/5 402/2/5
f 406/2/5 405/2/5 404/2/5
f 407/2/5 405/2/5 406/2/5
f 408/2/5 406/2/5 404/2/5
f 409/2/5 406/2/5 408/2/5
f 412/2/5 411/2/5 410/2/5
f 415/2/5 412/2/5 410/2/5
f 415/2/5 413/2/5 412/2/5
f 416/2/5 415/2/5 414/2/5
f 417/2/5 413/2/5 415/2/5
f 417/2/5 415/2/5 416/2/5
f 420/2/5 419/2/5 418/2/5
f 421/2/5 419/2/5 420/2/5
f 424/2/5 423/2/5 422/2/5
f 426/2/5 424/2/5 422/2/5
f 426/2/5 425/2/5 424/2/5
f 427/2/5 425/2/5 426/2/5
f 428/2/5 425/2/5 427/2/5
f 429/2/5 425/2/5 428/2/5
f 430/2/5 428/2/5 427/2/5
f 431/2/5 428/2/5 430/2/5
f 435/2/5 433/2/5 432/2/5
f 436/2/5 433/2/5 435/2/5
f 437/2/5 435/2/5 434/2/5
f 438/2/5 435/2/5 437/2/5
f 441/2/5 440/2/5 439/2/5
f 443/2/5 441/2/5 439/2/5
f 443/2/5 442/2/5 441/2/5
f 444/2/5 442/2/5 443/2/5
f 445/2/5 442/2/5 444/2/5
f 446/2/5 442/2/5 445/2/5
f 449/2/5 448/2/5 447/2/5
f 450/2/5 448/2/5 449/2/5
f 454/2/5 452/2/5 451/2/5
f 455/2/5 452/2/5 454/2/5
f 456/2/5 454/2/5 453/2/5
f 457/2/5 454/2/5 456/2/5
f 461/2/5 459/2/5 458/2/5
f 462/2/5 459/2/5 461/2/5
f 463/2/5 461/2/5 460/2/5
f 464/2/5 461/2/5 463/2/5
f 468/3/5 466/3/5 465/3/5
f 469/3/5 466/3/5 468/3/5
f 470/3/5 468/3/5 467/3/5
f 471/3/5 468/3/5 470/3/5
f 476/3/5 473/3/5 472/3/5
f 477/3/5 473/3/5 476/3/5
f 478/3/5 475/3/5 474/3/5
f 481/3/5 478/3/5 474/3/5
f 482/3/5 478/3/5 481/3/5
f 483/3/5 480/3/5 479/3/5
f 484/3/5 480/3/5 483/3/5
f 487/3/5 486/3/5 485/3/5
f 488/3/5 486/3/5 487/3/5
f 492/3/5 491/3/5 490/3/5
f 492/3/5 490/3/5 489/3/5
f 493/3/5 491/3/5 492/3/5
f 494/2/6 495/2/6 497/2/6
f 497/2/6 495/2/6 498/2/6
f 496/2/6 497/2/6 499/2/6
f 499/2/6 497/2/6 500/2/6
f 501/2/6 502/2/6 504/2/6
f 504/2/6 502/2/6 505/2/6
f 503/2/6 504/2/6 506/2/6
f 506/2/6 504/2/6 507/2/6
f 508/2/6 509/2/6 510/2/6
f 510/2/6 509/2/6 511/2/6
f 512/2/6 513/2/6 515/2/6
f 515/2/6 513/2/6 516/2/6
f 516/2/6 513/2/6 517/2/6
f 514/2/6 515/2/6 520/2/6
f 515/2/6 516/2/6 520/2/6
f 520/2/6 516/2/6 521/2/6
f 518/2/6 519/2/6 522/2/6
f 522/2/6 519/2/6 523/2/6
f 523/2/6 519/2/6 524/2/6
f 524/2/6 525/2/6 526/2/6
f 526/2/6 525/2/6 527/2/6
f 528/3/6 529/3/6 531/3/6
f 531/3/6 529/3/6 532/3/6
f 530/3/6 531/3/6 535/3/6
f 531/3/6 532/3/6 535/3/6
f 535/3/6 532/3/6 536/3/6
f 533/2/6 534/2/6 539/2/6
f 539/2/6 534/2/6 540/2/6
f 537/2/6 538/2/6 541/2/6
f 541/2/6 538/2/6 542/2/6
f 542/2/6 538/2/6 543/2/6
f 543/2/6 544/2/6 545/2/6
f 545/2/6 544/2/6 546/2/6
f 546/2/6 544/2/6 547/2/6
f 547/2/6 544/2/6 548/2/6
f 549/3/6 550/3/6 553/3/6
f 553/3/6 550/3/6 554/3/6
f 551/3/6 552/3/6 555/3/6
f 555/3/6 552/3/6 556/3/6
f 554/1/6 555/1/6 559/1/6
f 559/1/6 555/1/6 560/1/6
f 557/2/6 558/2/6 561/2/6
f 561/2/6 558/2/6 562/2/6
f 563/3/6 564/3/6 569/3/6
f 569/3/6 564/3/6 570/3/6
f 565/3/6 566/3/6 572/3/6
f 571/3/6 572/3/6 573/3/6
f 572/3/6 566/3/6 574/3/6
f 573/3/6 572/3/6 574/3/6
f 567/2/6 568/2/6 575/2/6
f 575/2/6 568/2/6 576/2/6
f 579/3/6 580/3/6 581/3/6
f 581/3/6 580/3/6 582/3/6
f 577/2/6 578/2/6 583/2/6
f 583/2/6 578/2/6 584/2/6
