# MagicaVoxel @ Ephtracy

# group
o 

# material
mtllib Choadz.vox.mtl
usemtl palette

# normals
vn -1 0 0
vn 1 0 0
vn 0 0 1
vn 0 0 -1
vn 0 -1 0
vn 0 1 0

# texcoords
vt 0.00195312 0.5
vt 0.00585938 0.5
vt 0.00976562 0.5
vt 0.0136719 0.5
vt 0.0175781 0.5
vt 0.0214844 0.5
vt 0.0253906 0.5
vt 0.0292969 0.5

# verts
v -1.3 0.4 0.1
v -1.3 0.4 -0.2
v -1.3 0.7 0.1
v -1.3 0.7 -0.2
v -1.2 0.1 0.1
v -1.2 0.1 -0.2
v -1.2 0.2 0.1
v -1.2 0.2 -0.2
v -1.2 0.3 0.1
v -1.2 0.3 -0.2
v -1.2 0.4 0.1
v -1.2 0.4 -0.2
v -1.2 0.7 0.1
v -1.2 0.7 -0.2
v -1.2 0.8 0.1
v -1.2 0.8 -0.2
v -1.1 0 0.1
v -1.1 0 -0.2
v -1.1 0.1 0.1
v -1.1 0.1 -0.2
v -1.1 0.2 0.1
v -1.1 0.2 -0.2
v -1.1 0.3 0.1
v -1.1 0.3 -0.2
v -1.1 0.8 0.1
v -1.1 0.8 -0.2
v -1.1 0.9 0.1
v -1.1 0.9 -0.2
v -1 0.6 0.2
v -1 0.6 0.1
v -1 0.8 0.1
v -1 0.9 0.1
v -1 0.9 -0.2
v -1 1.2 0.3
v -1 1.2 0.2
v -1 1.2 0.1
v -1 1.5 0.3
v -1 1.5 0.1
v -1 1.5 -0.2
v -0.9 0.5 0.2
v -0.9 0.5 0.1
v -0.9 0.6 0.2
v -0.9 0.6 0.1
v -0.9 1.1 0.3
v -0.9 1.1 0.2
v -0.9 1.2 0.3
v -0.9 1.2 0.2
v -0.9 1.5 0.2
v -0.9 1.5 0.1
v -0.9 1.5 -0.2
v -0.9 1.6 0.2
v -0.9 1.6 -0.2
v -0.8 0.4 0.2
v -0.8 0.4 0.1
v -0.8 0.5 0.2
v -0.8 0.5 0.1
v -0.8 1.3 0.3
v -0.8 1.3 0.2
v -0.8 1.4 0.3
v -0.8 1.4 0.2
v -0.8 1.6 0.2
v -0.8 1.6 -0.2
v -0.8 1.8 0.2
v -0.8 1.8 -0.2
v -0.7 0.3 0.2
v -0.7 0.3 0.1
v -0.7 0.4 0.2
v -0.7 0.4 0.1
v -0.7 1.8 0.2
v -0.7 1.8 -0.2
v -0.7 1.9 0.2
v -0.7 1.9 -0.2
v -0.6 0.2 0.2
v -0.6 0.2 0.1
v -0.6 0.3 0.2
v -0.6 0.3 0.1
v -0.6 1.9 0.2
v -0.6 1.9 -0.2
v -0.6 2 0.2
v -0.6 2 -0.2
v -0.4 0 0.2
v -0.4 0 0.1
v -0.4 0.1 0.1
v -0.4 0.2 0.2
v -0.4 0.2 0.1
v 0.4 1.4 0.3
v 0.4 1.4 0.2
v 0.4 1.5 0.3
v 0.4 1.5 0.2
v 0.5 1.2 0.3
v 0.5 1.2 0.2
v 0.5 1.3 0.3
v 0.5 1.3 0.2
v 0.6 1.3 0.3
v 0.6 1.3 0.2
v 0.6 1.4 0.3
v 0.6 1.4 0.2
v -0.9 1.3 0.3
v -0.9 1.3 0.2
v -0.9 1.4 0.3
v -0.9 1.4 0.2
v -0.8 1.2 0.3
v -0.8 1.2 0.2
v -0.8 1.3 0.3
v -0.8 1.3 0.2
v -0.7 1.4 0.3
v -0.7 1.4 0.2
v -0.7 1.5 0.3
v -0.7 1.5 0.2
v 0.3 0 0.2
v 0.3 0 0.1
v 0.3 0.1 0.1
v 0.3 0.2 0.2
v 0.3 0.2 0.1
v 0.5 1.3 0.3
v 0.5 1.3 0.2
v 0.5 1.4 0.3
v 0.5 1.4 0.2
v 0.6 0.2 0.2
v 0.6 0.2 0.1
v 0.6 0.3 0.2
v 0.6 0.3 0.1
v 0.6 1.1 0.3
v 0.6 1.1 0.2
v 0.6 1.2 0.3
v 0.6 1.2 0.2
v 0.6 1.9 0.2
v 0.6 1.9 -0.2
v 0.6 2 0.2
v 0.6 2 -0.2
v 0.7 0.3 0.2
v 0.7 0.3 0.1
v 0.7 0.4 0.2
v 0.7 0.4 0.1
v 0.7 1.2 0.3
v 0.7 1.2 0.2
v 0.7 1.5 0.3
v 0.7 1.5 0.2
v 0.7 1.8 0.2
v 0.7 1.8 -0.2
v 0.7 1.9 0.2
v 0.7 1.9 -0.2
v 0.8 0.4 0.2
v 0.8 0.4 0.1
v 0.8 0.5 0.2
v 0.8 0.5 0.1
v 0.8 1.6 0.2
v 0.8 1.6 -0.2
v 0.8 1.8 0.2
v 0.8 1.8 -0.2
v 0.9 0.5 0.2
v 0.9 0.5 0.1
v 0.9 0.9 0.1
v 0.9 1 0.1
v 0.9 1 -0.2
v 0.9 1.6 0.2
v 0.9 1.6 -0.2
v 1 0 0.1
v 1 0 -0.2
v 1 0.1 0.1
v 1 0.1 -0.2
v 1 0.9 0.1
v 1 0.9 -0.2
v 1 1 0.1
v 1 1 -0.2
v 1.1 0.1 0.1
v 1.1 0.1 -0.2
v 1.1 0.2 0.1
v 1.1 0.2 -0.2
v 1.1 0.8 0.1
v 1.1 0.8 -0.2
v 1.1 0.9 0.1
v 1.1 0.9 -0.2
v 1.2 0.2 0.1
v 1.2 0.2 -0.2
v 1.2 0.3 0.1
v 1.2 0.3 -0.2
v 1.2 0.7 0.1
v 1.2 0.7 -0.2
v 1.2 0.8 0.1
v 1.2 0.8 -0.2
v 1.3 0.3 0.1
v 1.3 0.3 -0.2
v 1.3 0.7 0.1
v 1.3 0.7 -0.2
v -1 1.2 0.3
v -1 1.5 0.3
v -0.9 1.1 0.3
v -0.9 1.2 0.3
v -0.9 1.3 0.3
v -0.9 1.4 0.3
v -0.8 1.2 0.3
v -0.8 1.3 0.3
v -0.8 1.4 0.3
v -0.7 1.4 0.3
v -0.7 1.5 0.3
v 0.4 1.4 0.3
v 0.4 1.5 0.3
v 0.5 1.2 0.3
v 0.5 1.3 0.3
v 0.5 1.4 0.3
v 0.6 1.1 0.3
v 0.6 1.2 0.3
v 0.6 1.3 0.3
v 0.6 1.4 0.3
v 0.7 1.2 0.3
v 0.7 1.5 0.3
v -1 0.6 0.2
v -1 1.2 0.2
v -0.9 0.5 0.2
v -0.9 0.6 0.2
v -0.9 1.1 0.2
v -0.9 1.2 0.2
v -0.9 1.3 0.2
v -0.9 1.4 0.2
v -0.9 1.5 0.2
v -0.9 1.6 0.2
v -0.8 0.4 0.2
v -0.8 0.5 0.2
v -0.8 0.6 0.2
v -0.8 1.2 0.2
v -0.8 1.3 0.2
v -0.8 1.4 0.2
v -0.8 1.5 0.2
v -0.8 1.6 0.2
v -0.8 1.8 0.2
v -0.7 0.3 0.2
v -0.7 0.4 0.2
v -0.7 0.5 0.2
v -0.7 1.4 0.2
v -0.7 1.5 0.2
v -0.7 1.6 0.2
v -0.7 1.7 0.2
v -0.7 1.8 0.2
v -0.7 1.9 0.2
v -0.6 0.2 0.2
v -0.6 0.3 0.2
v -0.6 0.4 0.2
v -0.6 1.8 0.2
v -0.6 1.9 0.2
v -0.6 2 0.2
v -0.4 0 0.2
v -0.4 0.2 0.2
v -0.4 0.8 0.2
v -0.4 0.9 0.2
v -0.4 1.5 0.2
v -0.4 1.6 0.2
v -0.3 0.1 0.2
v -0.3 0.3 0.2
v -0.3 0.8 0.2
v -0.3 0.9 0.2
v -0.2 0.3 0.2
v -0.2 0.8 0.2
v -0.2 1.5 0.2
v -0.2 1.6 0.2
v -0.2 1.7 0.2
v -0.2 1.9 0.2
v -0.1 0.1 0.2
v -0.1 0.3 0.2
v -0.1 0.9 0.2
v -0.1 1.5 0.2
v -0.1 1.6 0.2
v -0.1 1.7 0.2
v -0.1 1.9 0.2
v -1.19209e-07 0.1 0.2
v -1.19209e-07 0.2 0.2
v -1.19209e-07 0.3 0.2
v -1.19209e-07 0.9 0.2
v 0.0999999 0.3 0.2
v 0.0999999 0.8 0.2
v 0.2 0.1 0.2
v 0.2 0.2 0.2
v 0.2 0.3 0.2
v 0.2 0.8 0.2
v 0.2 0.9 0.2
v 0.2 1.5 0.2
v 0.2 1.6 0.2
v 0.3 0 0.2
v 0.3 0.2 0.2
v 0.3 0.3 0.2
v 0.3 0.8 0.2
v 0.3 0.9 0.2
v 0.3 1.8 0.2
v 0.3 1.9 0.2
v 0.4 1.4 0.2
v 0.4 1.5 0.2
v 0.4 1.6 0.2
v 0.4 1.7 0.2
v 0.4 1.8 0.2
v 0.5 0.3 0.2
v 0.5 0.4 0.2
v 0.5 1.2 0.2
v 0.5 1.3 0.2
v 0.5 1.4 0.2
v 0.5 1.5 0.2
v 0.5 1.6 0.2
v 0.6 0.2 0.2
v 0.6 0.3 0.2
v 0.6 0.4 0.2
v 0.6 1.1 0.2
v 0.6 1.2 0.2
v 0.6 1.3 0.2
v 0.6 1.4 0.2
v 0.6 1.8 0.2
v 0.6 1.9 0.2
v 0.6 2 0.2
v 0.7 0.3 0.2
v 0.7 0.4 0.2
v 0.7 0.5 0.2
v 0.7 1.2 0.2
v 0.7 1.5 0.2
v 0.7 1.6 0.2
v 0.7 1.8 0.2
v 0.7 1.9 0.2
v 0.8 0.4 0.2
v 0.8 0.5 0.2
v 0.8 1.6 0.2
v 0.8 1.8 0.2
v 0.9 0.5 0.2
v 0.9 1.6 0.2
v -1.3 0.4 0.1
v -1.3 0.7 0.1
v -1.2 0.1 0.1
v -1.2 0.2 0.1
v -1.2 0.3 0.1
v -1.2 0.4 0.1
v -1.2 0.7 0.1
v -1.2 0.8 0.1
v -1.1 0 0.1
v -1.1 0.1 0.1
v -1.1 0.2 0.1
v -1.1 0.3 0.1
v -1.1 0.4 0.1
v -1.1 0.7 0.1
v -1.1 0.8 0.1
v -1.1 0.9 0.1
v -1 0.6 0.1
v -1 0.8 0.1
v -1 0.9 0.1
v -0.9 0.5 0.1
v -0.9 0.6 0.1
v -0.8 0.2 0.1
v -0.8 0.3 0.1
v -0.8 0.4 0.1
v -0.8 0.5 0.1
v -0.7 0.3 0.1
v -0.7 0.4 0.1
v -0.6 0.2 0.1
v -0.6 0.3 0.1
v -0.4 0 0.1
v -0.4 0.1 0.1
v -0.4 0.2 0.1
v 0.3 0 0.1
v 0.3 0.1 0.1
v 0.3 0.2 0.1
v 0.6 0.2 0.1
v 0.6 0.3 0.1
v 0.7 0.2 0.1
v 0.7 0.3 0.1
v 0.7 0.4 0.1
v 0.8 0.4 0.1
v 0.8 0.5 0.1
v 0.9 0.5 0.1
v 0.9 0.9 0.1
v 0.9 1 0.1
v 1 0 0.1
v 1 0.1 0.1
v 1 0.2 0.1
v 1 0.3 0.1
v 1 0.8 0.1
v 1 0.9 0.1
v 1 1 0.1
v 1.1 0.1 0.1
v 1.1 0.2 0.1
v 1.1 0.3 0.1
v 1.1 0.7 0.1
v 1.1 0.8 0.1
v 1.1 0.9 0.1
v 1.2 0.2 0.1
v 1.2 0.3 0.1
v 1.2 0.7 0.1
v 1.2 0.8 0.1
v 1.3 0.3 0.1
v 1.3 0.7 0.1
v -1.3 0.4 -0.2
v -1.3 0.7 -0.2
v -1.2 0.1 -0.2
v -1.2 0.2 -0.2
v -1.2 0.3 -0.2
v -1.2 0.4 -0.2
v -1.2 0.7 -0.2
v -1.2 0.8 -0.2
v -1.1 0 -0.2
v -1.1 0.1 -0.2
v -1.1 0.2 -0.2
v -1.1 0.3 -0.2
v -1.1 0.4 -0.2
v -1.1 0.7 -0.2
v -1.1 0.8 -0.2
v -1.1 0.9 -0.2
v -1 0.2 -0.2
v -1 0.3 -0.2
v -1 0.9 -0.2
v -1 1.5 -0.2
v -0.9 0.8 -0.2
v -0.9 1.5 -0.2
v -0.9 1.6 -0.2
v -0.8 1.5 -0.2
v -0.8 1.6 -0.2
v -0.8 1.8 -0.2
v -0.7 1.6 -0.2
v -0.7 1.8 -0.2
v -0.7 1.9 -0.2
v -0.6 1.8 -0.2
v -0.6 1.9 -0.2
v -0.6 2 -0.2
v -0.1 0.1 -0.2
v -0.1 0.2 -0.2
v -0.1 0.7 -0.2
v -0.1 0.8 -0.2
v -1.19209e-07 0.1 -0.2
v -1.19209e-07 0.2 -0.2
v -1.19209e-07 0.7 -0.2
v -1.19209e-07 0.8 -0.2
v 0.0999999 0.2 -0.2
v 0.0999999 0.7 -0.2
v 0.5 1.8 -0.2
v 0.5 1.9 -0.2
v 0.6 1.7 -0.2
v 0.6 1.8 -0.2
v 0.6 1.9 -0.2
v 0.6 2 -0.2
v 0.7 1.5 -0.2
v 0.7 1.7 -0.2
v 0.7 1.8 -0.2
v 0.7 1.9 -0.2
v 0.8 0.9 -0.2
v 0.8 1.5 -0.2
v 0.8 1.6 -0.2
v 0.8 1.8 -0.2
v 0.9 0.8 -0.2
v 0.9 0.9 -0.2
v 0.9 1 -0.2
v 0.9 1.6 -0.2
v 1 0 -0.2
v 1 0.1 -0.2
v 1 0.2 -0.2
v 1 0.7 -0.2
v 1 0.8 -0.2
v 1 0.9 -0.2
v 1 1 -0.2
v 1.1 0.1 -0.2
v 1.1 0.2 -0.2
v 1.1 0.3 -0.2
v 1.1 0.8 -0.2
v 1.1 0.9 -0.2
v 1.2 0.2 -0.2
v 1.2 0.3 -0.2
v 1.2 0.7 -0.2
v 1.2 0.8 -0.2
v 1.3 0.3 -0.2
v 1.3 0.7 -0.2
v -0.4 0 0.2
v 0.3 0 0.2
v -1.1 0 0.1
v -0.4 0 0.1
v 0.3 0 0.1
v 1 0 0.1
v -1.1 0 -0.2
v 1 0 -0.2
v -1.2 0.1 0.1
v -1.1 0.1 0.1
v 1 0.1 0.1
v 1.1 0.1 0.1
v -1.2 0.1 -0.2
v -1.1 0.1 -0.2
v 1 0.1 -0.2
v 1.1 0.1 -0.2
v -0.6 0.2 0.2
v -0.4 0.2 0.2
v 0.3 0.2 0.2
v 0.6 0.2 0.2
v -0.6 0.2 0.1
v -0.4 0.2 0.1
v 0.3 0.2 0.1
v 0.6 0.2 0.1
v 1.1 0.2 0.1
v 1.2 0.2 0.1
v 1.1 0.2 -0.2
v 1.2 0.2 -0.2
v -0.7 0.3 0.2
v -0.6 0.3 0.2
v 0.6 0.3 0.2
v 0.7 0.3 0.2
v -1.2 0.3 0.1
v -1.1 0.3 0.1
v -0.7 0.3 0.1
v -0.6 0.3 0.1
v 0.6 0.3 0.1
v 0.7 0.3 0.1
v 1.2 0.3 0.1
v 1.3 0.3 0.1
v -1.2 0.3 -0.2
v -1.1 0.3 -0.2
v 1.2 0.3 -0.2
v 1.3 0.3 -0.2
v -0.8 0.4 0.2
v -0.7 0.4 0.2
v 0.7 0.4 0.2
v 0.8 0.4 0.2
v -1.3 0.4 0.1
v -1.2 0.4 0.1
v -0.8 0.4 0.1
v -0.7 0.4 0.1
v 0.7 0.4 0.1
v 0.8 0.4 0.1
v -1.3 0.4 -0.2
v -1.2 0.4 -0.2
v -0.9 0.5 0.2
v -0.8 0.5 0.2
v 0.8 0.5 0.2
v 0.9 0.5 0.2
v -0.9 0.5 0.1
v -0.8 0.5 0.1
v 0.8 0.5 0.1
v 0.9 0.5 0.1
v -1 0.6 0.2
v -0.9 0.6 0.2
v -1 0.6 0.1
v -0.9 0.6 0.1
v -0.9 1.1 0.3
v 0.6 1.1 0.3
v -0.9 1.1 0.2
v 0.6 1.1 0.2
v -1 1.2 0.3
v -0.9 1.2 0.3
v 0.6 1.2 0.3
v 0.7 1.2 0.3
v -1 1.2 0.2
v -0.9 1.2 0.2
v 0.6 1.2 0.2
v 0.7 1.2 0.2
v -0.8 1.3 0.3
v 0.5 1.3 0.3
v -0.8 1.3 0.2
v 0.5 1.3 0.2
v -0.9 1.4 0.3
v -0.8 1.4 0.3
v 0.5 1.4 0.3
v 0.6 1.4 0.3
v -0.9 1.4 0.2
v -0.8 1.4 0.2
v 0.5 1.4 0.2
v 0.6 1.4 0.2
v -1.2 0.2 0.1
v -1.1 0.2 0.1
v -1.2 0.2 -0.2
v -1.1 0.2 -0.2
v -1.3 0.7 0.1
v -1.2 0.7 0.1
v 1.2 0.7 0.1
v 1.3 0.7 0.1
v -1.3 0.7 -0.2
v -1.2 0.7 -0.2
v 1.2 0.7 -0.2
v 1.3 0.7 -0.2
v -1.2 0.8 0.1
v -1.1 0.8 0.1
v 1.1 0.8 0.1
v 1.2 0.8 0.1
v -1.2 0.8 -0.2
v -1.1 0.8 -0.2
v 1.1 0.8 -0.2
v 1.2 0.8 -0.2
v -1.1 0.9 0.1
v -1 0.9 0.1
v 1 0.9 0.1
v 1.1 0.9 0.1
v -1.1 0.9 -0.2
v -1 0.9 -0.2
v 1 0.9 -0.2
v 1.1 0.9 -0.2
v 0.9 1 0.1
v 1 1 0.1
v 0.9 1 -0.2
v 1 1 -0.2
v -0.8 1.2 0.3
v 0.5 1.2 0.3
v -0.8 1.2 0.2
v 0.5 1.2 0.2
v -0.9 1.3 0.3
v -0.8 1.3 0.3
v 0.5 1.3 0.3
v 0.6 1.3 0.3
v -0.9 1.3 0.2
v -0.8 1.3 0.2
v 0.5 1.3 0.2
v 0.6 1.3 0.2
v -0.7 1.4 0.3
v 0.4 1.4 0.3
v -0.7 1.4 0.2
v 0.4 1.4 0.2
v -1 1.5 0.3
v -0.7 1.5 0.3
v 0.4 1.5 0.3
v 0.7 1.5 0.3
v -0.9 1.5 0.2
v -0.8 1.5 0.2
v -0.7 1.5 0.2
v 0.4 1.5 0.2
v 0.5 1.5 0.2
v 0.7 1.5 0.2
v -1 1.5 0.1
v -0.9 1.5 0.1
v -1 1.5 -0.2
v -0.9 1.5 -0.2
v -0.9 1.6 0.2
v -0.8 1.6 0.2
v 0.8 1.6 0.2
v 0.9 1.6 0.2
v -0.9 1.6 -0.2
v -0.8 1.6 -0.2
v 0.8 1.6 -0.2
v 0.9 1.6 -0.2
v -0.8 1.8 0.2
v -0.7 1.8 0.2
v 0.7 1.8 0.2
v 0.8 1.8 0.2
v -0.8 1.8 -0.2
v -0.7 1.8 -0.2
v 0.7 1.8 -0.2
v 0.8 1.8 -0.2
v -0.7 1.9 0.2
v -0.6 1.9 0.2
v 0.6 1.9 0.2
v 0.7 1.9 0.2
v -0.7 1.9 -0.2
v -0.6 1.9 -0.2
v 0.6 1.9 -0.2
v 0.7 1.9 -0.2
v -0.6 2 0.2
v 0.6 2 0.2
v -0.6 2 -0.2
v 0.6 2 -0.2

# faces
f 3/7/1 2/7/1 1/7/1
f 4/7/1 2/7/1 3/7/1
f 7/7/1 6/7/1 5/7/1
f 8/7/1 6/7/1 7/7/1
f 11/7/1 10/7/1 9/7/1
f 12/7/1 10/7/1 11/7/1
f 15/7/1 14/7/1 13/7/1
f 16/7/1 14/7/1 15/7/1
f 19/7/1 18/7/1 17/7/1
f 20/7/1 18/7/1 19/7/1
f 23/7/1 22/7/1 21/7/1
f 24/7/1 22/7/1 23/7/1
f 27/7/1 26/7/1 25/7/1
f 28/7/1 26/7/1 27/7/1
f 31/7/1 30/7/1 29/7/1
f 32/7/1 31/7/1 29/7/1
f 35/7/1 32/7/1 29/7/1
f 35/7/1 33/7/1 32/7/1
f 36/7/1 33/7/1 35/7/1
f 37/4/1 35/4/1 34/4/1
f 37/4/1 36/4/1 35/4/1
f 38/7/1 33/7/1 36/7/1
f 38/4/1 36/4/1 37/4/1
f 39/7/1 33/7/1 38/7/1
f 42/7/1 41/7/1 40/7/1
f 43/7/1 41/7/1 42/7/1
f 46/4/1 45/4/1 44/4/1
f 47/4/1 45/4/1 46/4/1
f 51/7/1 49/7/1 48/7/1
f 51/7/1 50/7/1 49/7/1
f 52/7/1 50/7/1 51/7/1
f 55/7/1 54/7/1 53/7/1
f 56/7/1 54/7/1 55/7/1
f 59/4/1 58/4/1 57/4/1
f 60/4/1 58/4/1 59/4/1
f 63/7/1 62/7/1 61/7/1
f 64/7/1 62/7/1 63/7/1
f 67/7/1 66/7/1 65/7/1
f 68/7/1 66/7/1 67/7/1
f 71/7/1 70/7/1 69/7/1
f 72/7/1 70/7/1 71/7/1
f 75/7/1 74/7/1 73/7/1
f 76/7/1 74/7/1 75/7/1
f 79/7/1 78/7/1 77/7/1
f 80/7/1 78/7/1 79/7/1
f 83/7/1 82/7/1 81/7/1
f 84/7/1 83/7/1 81/7/1
f 85/7/1 83/7/1 84/7/1
f 88/4/1 87/4/1 86/4/1
f 89/4/1 87/4/1 88/4/1
f 92/4/1 91/4/1 90/4/1
f 93/4/1 91/4/1 92/4/1
f 96/4/1 95/4/1 94/4/1
f 97/4/1 95/4/1 96/4/1
f 98/4/2 99/4/2 100/4/2
f 100/4/2 99/4/2 101/4/2
f 102/4/2 103/4/2 104/4/2
f 104/4/2 103/4/2 105/4/2
f 106/4/2 107/4/2 108/4/2
f 108/4/2 107/4/2 109/4/2
f 110/7/2 111/7/2 112/7/2
f 110/7/2 112/7/2 113/7/2
f 113/7/2 112/7/2 114/7/2
f 115/4/2 116/4/2 117/4/2
f 117/4/2 116/4/2 118/4/2
f 119/7/2 120/7/2 121/7/2
f 121/7/2 120/7/2 122/7/2
f 123/4/2 124/4/2 125/4/2
f 125/4/2 124/4/2 126/4/2
f 127/7/2 128/7/2 129/7/2
f 129/7/2 128/7/2 130/7/2
f 131/7/2 132/7/2 133/7/2
f 133/7/2 132/7/2 134/7/2
f 135/4/2 136/4/2 137/4/2
f 137/4/2 136/4/2 138/4/2
f 139/7/2 140/7/2 141/7/2
f 141/7/2 140/7/2 142/7/2
f 143/7/2 144/7/2 145/7/2
f 145/7/2 144/7/2 146/7/2
f 147/7/2 148/7/2 149/7/2
f 149/7/2 148/7/2 150/7/2
f 151/7/2 152/7/2 153/7/2
f 151/7/2 153/7/2 154/7/2
f 151/7/2 154/7/2 156/7/2
f 154/7/2 155/7/2 156/7/2
f 156/7/2 155/7/2 157/7/2
f 158/7/2 159/7/2 160/7/2
f 160/7/2 159/7/2 161/7/2
f 162/7/2 163/7/2 164/7/2
f 164/7/2 163/7/2 165/7/2
f 166/7/2 167/7/2 168/7/2
f 168/7/2 167/7/2 169/7/2
f 170/7/2 171/7/2 172/7/2
f 172/7/2 171/7/2 173/7/2
f 174/7/2 175/7/2 176/7/2
f 176/7/2 175/7/2 177/7/2
f 178/7/2 179/7/2 180/7/2
f 180/7/2 179/7/2 181/7/2
f 182/7/2 183/7/2 184/7/2
f 184/7/2 183/7/2 185/7/2
f 189/4/3 187/4/3 186/4/3
f 190/4/3 187/4/3 189/4/3
f 191/4/3 187/4/3 190/4/3
f 192/4/3 189/4/3 188/4/3
f 192/4/3 190/4/3 189/4/3
f 193/4/3 190/4/3 192/4/3
f 194/4/3 187/4/3 191/4/3
f 195/4/3 194/4/3 193/4/3
f 195/4/3 187/4/3 194/4/3
f 196/4/3 187/4/3 195/4/3
f 197/4/3 195/4/3 193/4/3
f 199/4/3 192/4/3 188/4/3
f 200/4/3 198/4/3 197/4/3
f 200/4/3 197/4/3 193/4/3
f 201/4/3 198/4/3 200/4/3
f 202/4/3 199/4/3 188/4/3
f 202/4/3 200/4/3 199/4/3
f 203/4/3 200/4/3 202/4/3
f 204/4/3 200/4/3 203/4/3
f 205/4/3 198/4/3 201/4/3
f 206/4/3 204/4/3 203/4/3
f 206/4/3 205/4/3 204/4/3
f 207/4/3 198/4/3 205/4/3
f 207/4/3 205/4/3 206/4/3
f 211/7/3 209/7/3 208/7/3
f 212/7/3 209/7/3 211/7/3
f 213/7/3 209/7/3 212/7/3
f 219/7/3 211/7/3 210/7/3
f 220/5/3 212/5/3 211/5/3
f 220/7/3 211/7/3 219/7/3
f 222/7/3 215/7/3 214/7/3
f 223/7/3 215/7/3 222/7/3
f 224/7/3 217/7/3 216/7/3
f 225/7/3 217/7/3 224/7/3
f 228/7/3 219/7/3 218/7/3
f 229/5/3 220/5/3 219/5/3
f 229/7/3 219/7/3 228/7/3
f 231/5/3 225/5/3 224/5/3
f 232/7/3 226/7/3 225/7/3
f 232/5/3 225/5/3 231/5/3
f 233/7/3 226/7/3 232/7/3
f 234/7/3 226/7/3 233/7/3
f 237/7/3 228/7/3 227/7/3
f 238/5/3 229/5/3 228/5/3
f 238/7/3 228/7/3 237/7/3
f 239/7/3 235/7/3 234/7/3
f 239/3/3 234/3/3 233/3/3
f 240/7/3 235/7/3 239/7/3
f 243/7/3 237/7/3 236/7/3
f 244/5/3 212/5/3 220/5/3
f 244/5/3 220/5/3 229/5/3
f 244/5/3 229/5/3 238/5/3
f 244/5/3 238/5/3 237/5/3
f 245/5/3 212/5/3 244/5/3
f 246/5/3 231/5/3 230/5/3
f 246/7/3 232/7/3 231/7/3
f 247/1/3 233/1/3 232/1/3
f 247/7/3 232/7/3 246/7/3
f 248/7/3 243/7/3 242/7/3
f 249/7/3 237/7/3 243/7/3
f 249/7/3 243/7/3 248/7/3
f 249/5/3 244/5/3 237/5/3
f 250/7/3 245/7/3 244/7/3
f 250/5/3 244/5/3 249/5/3
f 251/5/3 212/5/3 245/5/3
f 251/7/3 245/7/3 250/7/3
f 252/7/3 250/7/3 249/7/3
f 252/3/3 249/3/3 248/3/3
f 253/2/3 251/2/3 250/2/3
f 253/7/3 250/7/3 252/7/3
f 254/5/3 246/5/3 230/5/3
f 254/8/3 247/8/3 246/8/3
f 255/1/3 233/1/3 247/1/3
f 255/8/3 247/8/3 254/8/3
f 256/3/3 240/3/3 239/3/3
f 256/1/3 233/1/3 255/1/3
f 256/3/3 239/3/3 233/3/3
f 257/7/3 241/7/3 240/7/3
f 257/3/3 240/3/3 256/3/3
f 258/7/3 248/7/3 242/7/3
f 258/3/3 252/3/3 248/3/3
f 259/2/3 253/2/3 252/2/3
f 259/3/3 252/3/3 258/3/3
f 260/5/3 212/5/3 251/5/3
f 260/2/3 253/2/3 259/2/3
f 260/2/3 251/2/3 253/2/3
f 261/5/3 254/5/3 230/5/3
f 261/3/3 256/3/3 255/3/3
f 261/3/3 255/3/3 254/3/3
f 262/3/3 256/3/3 261/3/3
f 263/2/3 257/2/3 256/2/3
f 263/3/3 256/3/3 262/3/3
f 264/7/3 241/7/3 257/7/3
f 264/2/3 257/2/3 263/2/3
f 265/7/3 259/7/3 258/7/3
f 265/7/3 260/7/3 259/7/3
f 265/7/3 258/7/3 242/7/3
f 266/7/3 260/7/3 265/7/3
f 267/7/3 260/7/3 266/7/3
f 268/5/3 212/5/3 260/5/3
f 268/7/3 260/7/3 267/7/3
f 269/6/3 267/6/3 266/6/3
f 269/2/3 268/2/3 267/2/3
f 270/2/3 268/2/3 269/2/3
f 271/7/3 265/7/3 242/7/3
f 271/3/3 266/3/3 265/3/3
f 272/6/3 269/6/3 266/6/3
f 272/3/3 266/3/3 271/3/3
f 273/7/3 270/7/3 269/7/3
f 273/6/3 269/6/3 272/6/3
f 274/2/3 268/2/3 270/2/3
f 274/7/3 270/7/3 273/7/3
f 275/5/3 212/5/3 268/5/3
f 275/2/3 268/2/3 274/2/3
f 276/7/3 262/7/3 261/7/3
f 276/5/3 261/5/3 230/5/3
f 277/1/3 263/1/3 262/1/3
f 277/7/3 262/7/3 276/7/3
f 278/7/3 272/7/3 271/7/3
f 278/7/3 271/7/3 242/7/3
f 279/6/3 273/6/3 272/6/3
f 279/7/3 272/7/3 278/7/3
f 280/5/3 274/5/3 273/5/3
f 280/6/3 273/6/3 279/6/3
f 281/7/3 275/7/3 274/7/3
f 281/5/3 274/5/3 280/5/3
f 282/5/3 212/5/3 275/5/3
f 282/7/3 275/7/3 281/7/3
f 283/3/3 264/3/3 263/3/3
f 284/7/3 241/7/3 264/7/3
f 284/3/3 264/3/3 283/3/3
f 285/5/3 276/5/3 230/5/3
f 286/8/3 277/8/3 276/8/3
f 286/5/3 276/5/3 285/5/3
f 287/1/3 263/1/3 277/1/3
f 287/8/3 277/8/3 286/8/3
f 288/3/3 283/3/3 263/3/3
f 288/1/3 263/1/3 287/1/3
f 289/2/3 284/2/3 283/2/3
f 289/3/3 283/3/3 288/3/3
f 290/5/3 281/5/3 280/5/3
f 290/7/3 280/7/3 279/7/3
f 290/5/3 282/5/3 281/5/3
f 291/5/3 282/5/3 290/5/3
f 292/7/3 222/7/3 221/7/3
f 293/7/3 222/7/3 292/7/3
f 295/5/3 287/5/3 286/5/3
f 296/2/3 288/2/3 287/2/3
f 296/5/3 287/5/3 295/5/3
f 296/2/3 289/2/3 288/2/3
f 297/7/3 290/7/3 279/7/3
f 298/2/3 291/2/3 290/2/3
f 298/7/3 290/7/3 297/7/3
f 299/5/3 282/5/3 291/5/3
f 299/2/3 291/2/3 298/2/3
f 300/5/3 212/5/3 282/5/3
f 300/5/3 282/5/3 299/5/3
f 302/7/3 294/7/3 293/7/3
f 303/7/3 294/7/3 302/7/3
f 304/2/3 284/2/3 289/2/3
f 304/2/3 289/2/3 296/2/3
f 304/2/3 296/2/3 295/2/3
f 305/7/3 241/7/3 284/7/3
f 305/2/3 284/2/3 304/2/3
f 306/7/3 241/7/3 305/7/3
f 307/7/3 299/7/3 298/7/3
f 308/2/3 301/2/3 300/2/3
f 308/7/3 299/7/3 307/7/3
f 308/2/3 300/2/3 299/2/3
f 309/2/3 301/2/3 308/2/3
f 310/2/3 301/2/3 309/2/3
f 311/2/3 304/2/3 295/2/3
f 312/2/3 304/2/3 311/2/3
f 313/7/3 305/7/3 304/7/3
f 313/2/3 304/2/3 312/2/3
f 314/7/3 305/7/3 313/7/3
f 315/7/3 309/7/3 308/7/3
f 316/2/3 310/2/3 309/2/3
f 316/7/3 309/7/3 315/7/3
f 316/2/3 312/2/3 311/2/3
f 316/2/3 311/2/3 310/2/3
f 317/7/3 313/7/3 312/7/3
f 317/2/3 312/2/3 316/2/3
f 318/7/3 313/7/3 317/7/3
f 319/7/3 317/7/3 316/7/3
f 320/7/3 317/7/3 319/7/3
f 326/7/3 322/7/3 321/7/3
f 327/7/3 322/7/3 326/7/3
f 330/7/3 324/7/3 323/7/3
f 331/7/3 324/7/3 330/7/3
f 332/7/3 326/7/3 325/7/3
f 333/2/3 327/2/3 326/2/3
f 333/7/3 326/7/3 332/7/3
f 334/7/3 328/7/3 327/7/3
f 334/2/3 327/2/3 333/2/3
f 335/7/3 328/7/3 334/7/3
f 337/2/3 333/2/3 332/2/3
f 337/2/3 334/2/3 333/2/3
f 337/2/3 335/2/3 334/2/3
f 338/7/3 336/7/3 335/7/3
f 338/2/3 335/2/3 337/2/3
f 339/7/3 336/7/3 338/7/3
f 340/2/3 337/2/3 332/2/3
f 341/2/3 337/2/3 340/2/3
f 342/3/3 331/3/3 330/3/3
f 342/7/3 332/7/3 331/7/3
f 343/2/3 340/2/3 332/2/3
f 343/7/3 332/7/3 342/7/3
f 344/2/3 340/2/3 343/2/3
f 345/2/3 340/2/3 344/2/3
f 346/2/3 343/2/3 342/2/3
f 346/2/3 344/2/3 343/2/3
f 347/2/3 344/2/3 346/2/3
f 348/3/3 342/3/3 330/3/3
f 348/2/3 346/2/3 342/2/3
f 349/2/3 346/2/3 348/2/3
f 350/7/3 330/7/3 329/7/3
f 351/3/3 348/3/3 330/3/3
f 351/7/3 330/7/3 350/7/3
f 352/3/3 348/3/3 351/3/3
f 356/3/3 355/3/3 354/3/3
f 358/3/3 356/3/3 354/3/3
f 358/2/3 357/2/3 356/2/3
f 359/2/3 357/2/3 358/2/3
f 361/2/3 360/2/3 359/2/3
f 363/2/3 362/2/3 361/2/3
f 366/7/3 354/7/3 353/7/3
f 367/3/3 358/3/3 354/3/3
f 367/7/3 354/7/3 366/7/3
f 368/7/3 359/7/3 358/7/3
f 368/3/3 358/3/3 367/3/3
f 369/2/3 364/2/3 363/2/3
f 369/7/3 359/7/3 368/7/3
f 369/2/3 363/2/3 361/2/3
f 369/2/3 361/2/3 359/2/3
f 370/2/3 364/2/3 369/2/3
f 371/7/3 365/7/3 364/7/3
f 371/2/3 364/2/3 370/2/3
f 372/7/3 365/7/3 371/7/3
f 373/7/3 368/7/3 367/7/3
f 374/2/3 370/2/3 369/2/3
f 374/7/3 368/7/3 373/7/3
f 374/2/3 369/2/3 368/2/3
f 375/2/3 370/2/3 374/2/3
f 376/2/3 370/2/3 375/2/3
f 377/7/3 371/7/3 370/7/3
f 377/2/3 370/2/3 376/2/3
f 378/7/3 371/7/3 377/7/3
f 379/7/3 375/7/3 374/7/3
f 380/2/3 376/2/3 375/2/3
f 380/7/3 375/7/3 379/7/3
f 381/7/3 377/7/3 376/7/3
f 381/2/3 376/2/3 380/2/3
f 382/7/3 377/7/3 381/7/3
f 383/7/3 381/7/3 380/7/3
f 384/7/3 381/7/3 383/7/3
f 385/7/4 386/7/4 390/7/4
f 390/7/4 386/7/4 391/7/4
f 387/7/4 388/7/4 394/7/4
f 394/7/4 388/7/4 395/7/4
f 389/7/4 390/7/4 396/7/4
f 390/2/4 391/2/4 397/2/4
f 396/7/4 390/7/4 397/7/4
f 391/7/4 392/7/4 398/7/4
f 397/2/4 391/2/4 398/2/4
f 398/7/4 392/7/4 399/7/4
f 394/2/4 395/2/4 401/2/4
f 395/7/4 396/7/4 401/7/4
f 396/2/4 397/2/4 402/2/4
f 401/7/4 396/7/4 402/7/4
f 398/2/4 399/2/4 402/2/4
f 397/2/4 398/2/4 402/2/4
f 399/7/4 400/7/4 403/7/4
f 402/2/4 399/2/4 405/2/4
f 403/7/4 404/7/4 405/7/4
f 399/7/4 403/7/4 405/7/4
f 401/2/4 402/2/4 405/2/4
f 405/7/4 404/7/4 406/7/4
f 405/2/4 406/2/4 408/2/4
f 406/7/4 407/7/4 408/7/4
f 408/7/4 407/7/4 409/7/4
f 408/2/4 409/2/4 411/2/4
f 409/7/4 410/7/4 411/7/4
f 411/7/4 410/7/4 412/7/4
f 411/2/4 412/2/4 414/2/4
f 412/7/4 413/7/4 414/7/4
f 414/7/4 413/7/4 415/7/4
f 394/2/4 401/2/4 417/2/4
f 393/7/4 394/7/4 417/7/4
f 414/2/4 415/2/4 417/2/4
f 411/2/4 414/2/4 417/2/4
f 408/2/4 411/2/4 417/2/4
f 405/2/4 408/2/4 417/2/4
f 401/2/4 405/2/4 417/2/4
f 417/2/4 415/2/4 418/2/4
f 418/2/4 415/2/4 419/2/4
f 419/2/4 415/2/4 420/2/4
f 393/7/4 417/7/4 421/7/4
f 417/7/4 418/7/4 421/7/4
f 418/2/4 419/2/4 422/2/4
f 421/7/4 418/7/4 422/7/4
f 419/7/4 420/7/4 423/7/4
f 422/2/4 419/2/4 423/2/4
f 420/2/4 415/2/4 424/2/4
f 423/7/4 420/7/4 424/7/4
f 422/7/4 423/7/4 425/7/4
f 421/2/4 422/2/4 425/2/4
f 423/2/4 424/2/4 426/2/4
f 425/7/4 423/7/4 426/7/4
f 424/2/4 415/2/4 427/2/4
f 426/2/4 424/2/4 427/2/4
f 425/2/4 426/2/4 427/2/4
f 415/7/4 416/7/4 428/7/4
f 427/2/4 415/2/4 428/2/4
f 425/2/4 427/2/4 429/2/4
f 427/7/4 428/7/4 430/7/4
f 429/2/4 427/2/4 430/2/4
f 428/7/4 416/7/4 431/7/4
f 430/7/4 428/7/4 431/7/4
f 431/7/4 416/7/4 432/7/4
f 425/2/4 429/2/4 433/2/4
f 429/7/4 430/7/4 434/7/4
f 433/2/4 429/2/4 434/2/4
f 430/7/4 431/7/4 434/7/4
f 434/7/4 431/7/4 435/7/4
f 435/7/4 431/7/4 436/7/4
f 425/2/4 433/2/4 437/2/4
f 433/7/4 434/7/4 438/7/4
f 437/2/4 433/2/4 438/2/4
f 434/7/4 435/7/4 438/7/4
f 438/7/4 435/7/4 439/7/4
f 439/7/4 435/7/4 440/7/4
f 425/2/4 437/2/4 441/2/4
f 437/7/4 438/7/4 442/7/4
f 441/2/4 437/2/4 442/2/4
f 438/7/4 439/7/4 442/7/4
f 442/7/4 439/7/4 443/7/4
f 443/7/4 439/7/4 444/7/4
f 393/7/4 421/7/4 445/7/4
f 421/2/4 425/2/4 446/2/4
f 445/7/4 421/7/4 446/7/4
f 425/2/4 441/2/4 446/2/4
f 446/2/4 441/2/4 447/2/4
f 447/2/4 441/2/4 448/2/4
f 442/7/4 443/7/4 449/7/4
f 448/2/4 441/2/4 449/2/4
f 441/7/4 442/7/4 449/7/4
f 449/7/4 443/7/4 450/7/4
f 450/7/4 443/7/4 451/7/4
f 446/7/4 447/7/4 452/7/4
f 447/2/4 448/2/4 453/2/4
f 452/7/4 447/7/4 453/7/4
f 453/2/4 448/2/4 454/2/4
f 449/7/4 450/7/4 455/7/4
f 448/7/4 449/7/4 455/7/4
f 455/7/4 450/7/4 456/7/4
f 453/7/4 454/7/4 457/7/4
f 454/2/4 448/2/4 458/2/4
f 457/7/4 454/7/4 458/7/4
f 448/7/4 455/7/4 459/7/4
f 458/2/4 448/2/4 459/2/4
f 459/7/4 455/7/4 460/7/4
f 458/7/4 459/7/4 461/7/4
f 461/7/4 459/7/4 462/7/4
f 466/7/5 464/7/5 463/7/5
f 467/7/5 464/7/5 466/7/5
f 469/7/5 466/7/5 465/7/5
f 469/7/5 468/7/5 467/7/5
f 469/7/5 467/7/5 466/7/5
f 470/7/5 468/7/5 469/7/5
f 475/7/5 472/7/5 471/7/5
f 476/7/5 472/7/5 475/7/5
f 477/7/5 474/7/5 473/7/5
f 478/7/5 474/7/5 477/7/5
f 483/7/5 480/7/5 479/7/5
f 484/7/5 480/7/5 483/7/5
f 485/7/5 482/7/5 481/7/5
f 486/7/5 482/7/5 485/7/5
f 489/7/5 488/7/5 487/7/5
f 490/7/5 488/7/5 489/7/5
f 497/7/5 492/7/5 491/7/5
f 498/7/5 492/7/5 497/7/5
f 499/7/5 494/7/5 493/7/5
f 500/7/5 494/7/5 499/7/5
f 503/7/5 496/7/5 495/7/5
f 504/7/5 496/7/5 503/7/5
f 505/7/5 502/7/5 501/7/5
f 506/7/5 502/7/5 505/7/5
f 513/7/5 508/7/5 507/7/5
f 514/7/5 508/7/5 513/7/5
f 515/7/5 510/7/5 509/7/5
f 516/7/5 510/7/5 515/7/5
f 517/7/5 512/7/5 511/7/5
f 518/7/5 512/7/5 517/7/5
f 523/7/5 520/7/5 519/7/5
f 524/7/5 520/7/5 523/7/5
f 525/7/5 522/7/5 521/7/5
f 526/7/5 522/7/5 525/7/5
f 529/7/5 528/7/5 527/7/5
f 530/7/5 528/7/5 529/7/5
f 533/4/5 532/4/5 531/4/5
f 534/4/5 532/4/5 533/4/5
f 539/4/5 536/4/5 535/4/5
f 540/4/5 536/4/5 539/4/5
f 541/4/5 538/4/5 537/4/5
f 542/4/5 538/4/5 541/4/5
f 545/4/5 544/4/5 543/4/5
f 546/4/5 544/4/5 545/4/5
f 551/4/5 548/4/5 547/4/5
f 552/4/5 548/4/5 551/4/5
f 553/4/5 550/4/5 549/4/5
f 554/4/5 550/4/5 553/4/5
f 555/7/6 556/7/6 557/7/6
f 557/7/6 556/7/6 558/7/6
f 559/7/6 560/7/6 563/7/6
f 563/7/6 560/7/6 564/7/6
f 561/7/6 562/7/6 565/7/6
f 565/7/6 562/7/6 566/7/6
f 567/7/6 568/7/6 571/7/6
f 571/7/6 568/7/6 572/7/6
f 569/7/6 570/7/6 573/7/6
f 573/7/6 570/7/6 574/7/6
f 575/7/6 576/7/6 579/7/6
f 579/7/6 576/7/6 580/7/6
f 577/7/6 578/7/6 581/7/6
f 581/7/6 578/7/6 582/7/6
f 583/7/6 584/7/6 585/7/6
f 585/7/6 584/7/6 586/7/6
f 587/4/6 588/4/6 589/4/6
f 589/4/6 588/4/6 590/4/6
f 591/4/6 592/4/6 595/4/6
f 595/4/6 592/4/6 596/4/6
f 593/4/6 594/4/6 597/4/6
f 597/4/6 594/4/6 598/4/6
f 599/4/6 600/4/6 601/4/6
f 601/4/6 600/4/6 602/4/6
f 603/4/6 604/4/6 607/4/6
f 607/4/6 604/4/6 608/4/6
f 608/4/6 604/4/6 609/4/6
f 605/4/6 606/4/6 610/4/6
f 610/4/6 606/4/6 611/4/6
f 611/4/6 606/4/6 612/4/6
f 603/4/6 607/4/6 613/4/6
f 613/4/6 607/4/6 614/4/6
f 613/7/6 614/7/6 615/7/6
f 615/7/6 614/7/6 616/7/6
f 617/7/6 618/7/6 621/7/6
f 621/7/6 618/7/6 622/7/6
f 619/7/6 620/7/6 623/7/6
f 623/7/6 620/7/6 624/7/6
f 625/7/6 626/7/6 629/7/6
f 629/7/6 626/7/6 630/7/6
f 627/7/6 628/7/6 631/7/6
f 631/7/6 628/7/6 632/7/6
f 633/7/6 634/7/6 637/7/6
f 637/7/6 634/7/6 638/7/6
f 635/7/6 636/7/6 639/7/6
f 639/7/6 636/7/6 640/7/6
f 641/7/6 642/7/6 643/7/6
f 643/7/6 642/7/6 644/7/6
