# MagicaVoxel @ Ephtracy

# group
o 

# material
mtllib Jetpack.mtl
usemtl palette

# normals
vn -1 0 0
vn 1 0 0
vn 0 0 1
vn 0 0 -1
vn 0 -1 0
vn 0 1 0

# texcoords
vt 0.845703 0.5
vt 0.966797 0.5
vt 0.970703 0.5
vt 0.974609 0.5
vt 0.978516 0.5
vt 0.982422 0.5

# verts
v -0.6 0.1 -0.1
v -0.6 0.1 -0.3
v -0.6 0.2 -0.1
v -0.6 0.2 -0.3
v -0.6 0.4 -0.1
v -0.6 0.4 -0.3
v -0.6 0.6 -0.1
v -0.6 0.6 -0.3
v -0.6 0.8 -0.1
v -0.6 0.8 -0.3
v -0.6 0.9 -0.1
v -0.6 0.9 -0.3
v -0.5 0 -0.1
v -0.5 0 -0.3
v -0.5 0.1 -0.1
v -0.5 0.1 -0.3
v -0.5 0.9 -0.1
v -0.5 0.9 -0.3
v -0.5 1 -0.1
v -0.5 1 -0.3
v -0.4 0 0.1
v -0.4 0 -0.1
v -0.4 0 -0.3
v -0.4 0 -0.5
v -0.4 0.2 0.1
v -0.4 0.2 -0.1
v -0.4 0.2 -0.3
v -0.4 0.2 -0.5
v -0.4 0.4 0.1
v -0.4 0.4 -0.1
v -0.4 0.4 -0.3
v -0.4 0.4 -0.5
v -0.4 0.6 0.1
v -0.4 0.6 -0.1
v -0.4 0.6 -0.3
v -0.4 0.6 -0.5
v -0.4 0.8 0.1
v -0.4 0.8 -0.1
v -0.4 0.8 -0.3
v -0.4 0.8 -0.5
v -0.4 0.9 0.1
v -0.4 0.9 -1.49012e-008
v -0.4 0.9 -0.4
v -0.4 0.9 -0.5
v -0.4 1 -1.49012e-008
v -0.4 1 -0.1
v -0.4 1 -0.3
v -0.4 1 -0.4
v -0.4 1.2 -0.1
v -0.4 1.2 -0.3
v 0.2 0 0.1
v 0.2 0 -0.1
v 0.2 0 -0.3
v 0.2 0 -0.5
v 0.2 0.2 0.1
v 0.2 0.2 -0.1
v 0.2 0.2 -0.3
v 0.2 0.2 -0.5
v 0.2 0.4 0.1
v 0.2 0.4 -0.1
v 0.2 0.4 -0.3
v 0.2 0.4 -0.5
v 0.2 0.6 0.1
v 0.2 0.6 -0.1
v 0.2 0.6 -0.3
v 0.2 0.6 -0.5
v 0.2 0.8 0.1
v 0.2 0.8 -0.1
v 0.2 0.8 -0.3
v 0.2 0.8 -0.5
v 0.2 0.9 0.1
v 0.2 0.9 -1.49012e-008
v 0.2 0.9 -0.4
v 0.2 0.9 -0.5
v 0.2 1 -1.49012e-008
v 0.2 1 -0.1
v 0.2 1 -0.3
v 0.2 1 -0.4
v 0.2 1.2 -0.1
v 0.2 1.2 -0.3
v -0.2 0 0.1
v -0.2 0 -0.1
v -0.2 0 -0.3
v -0.2 0 -0.5
v -0.2 0.2 0.1
v -0.2 0.2 -0.1
v -0.2 0.2 -0.3
v -0.2 0.2 -0.5
v -0.2 0.4 0.1
v -0.2 0.4 -0.1
v -0.2 0.4 -0.3
v -0.2 0.4 -0.5
v -0.2 0.6 0.1
v -0.2 0.6 -0.1
v -0.2 0.6 -0.3
v -0.2 0.6 -0.5
v -0.2 0.8 0.1
v -0.2 0.8 -0.1
v -0.2 0.8 -0.3
v -0.2 0.8 -0.5
v -0.2 0.9 0.1
v -0.2 0.9 -1.49012e-008
v -0.2 0.9 -0.4
v -0.2 0.9 -0.5
v -0.2 1 -1.49012e-008
v -0.2 1 -0.1
v -0.2 1 -0.3
v -0.2 1 -0.4
v -0.2 1.2 -0.1
v -0.2 1.2 -0.3
v 0.4 0 0.1
v 0.4 0 -0.1
v 0.4 0 -0.3
v 0.4 0 -0.5
v 0.4 0.2 0.1
v 0.4 0.2 -0.1
v 0.4 0.2 -0.3
v 0.4 0.2 -0.5
v 0.4 0.4 0.1
v 0.4 0.4 -0.1
v 0.4 0.4 -0.3
v 0.4 0.4 -0.5
v 0.4 0.6 0.1
v 0.4 0.6 -0.1
v 0.4 0.6 -0.3
v 0.4 0.6 -0.5
v 0.4 0.8 0.1
v 0.4 0.8 -0.1
v 0.4 0.8 -0.3
v 0.4 0.8 -0.5
v 0.4 0.9 0.1
v 0.4 0.9 -1.49012e-008
v 0.4 0.9 -0.4
v 0.4 0.9 -0.5
v 0.4 1 -1.49012e-008
v 0.4 1 -0.1
v 0.4 1 -0.3
v 0.4 1 -0.4
v 0.4 1.2 -0.1
v 0.4 1.2 -0.3
v 0.5 0 -0.1
v 0.5 0 -0.3
v 0.5 0.1 -0.1
v 0.5 0.1 -0.3
v 0.5 0.9 -0.1
v 0.5 0.9 -0.3
v 0.5 1 -0.1
v 0.5 1 -0.3
v 0.6 0.1 -0.1
v 0.6 0.1 -0.3
v 0.6 0.2 -0.1
v 0.6 0.2 -0.3
v 0.6 0.4 -0.1
v 0.6 0.4 -0.3
v 0.6 0.6 -0.1
v 0.6 0.6 -0.3
v 0.6 0.8 -0.1
v 0.6 0.8 -0.3
v 0.6 0.9 -0.1
v 0.6 0.9 -0.3
v -0.4 0 0.1
v -0.4 0.2 0.1
v -0.4 0.4 0.1
v -0.4 0.6 0.1
v -0.4 0.8 0.1
v -0.4 0.9 0.1
v -0.2 0 0.1
v -0.2 0.2 0.1
v -0.2 0.4 0.1
v -0.2 0.6 0.1
v -0.2 0.8 0.1
v -0.2 0.9 0.1
v 0.2 0 0.1
v 0.2 0.2 0.1
v 0.2 0.4 0.1
v 0.2 0.6 0.1
v 0.2 0.8 0.1
v 0.2 0.9 0.1
v 0.4 0 0.1
v 0.4 0.2 0.1
v 0.4 0.4 0.1
v 0.4 0.6 0.1
v 0.4 0.8 0.1
v 0.4 0.9 0.1
v -0.4 0.9 -1.49012e-008
v -0.4 1 -1.49012e-008
v -0.2 0.9 -1.49012e-008
v -0.2 1 -1.49012e-008
v 0.2 0.9 -1.49012e-008
v 0.2 1 -1.49012e-008
v 0.4 0.9 -1.49012e-008
v 0.4 1 -1.49012e-008
v -0.6 0.1 -0.1
v -0.6 0.2 -0.1
v -0.6 0.4 -0.1
v -0.6 0.6 -0.1
v -0.6 0.8 -0.1
v -0.6 0.9 -0.1
v -0.5 0 -0.1
v -0.5 0.1 -0.1
v -0.5 0.9 -0.1
v -0.5 1 -0.1
v -0.4 0 -0.1
v -0.4 0.2 -0.1
v -0.4 0.4 -0.1
v -0.4 0.6 -0.1
v -0.4 0.8 -0.1
v -0.4 1 -0.1
v -0.4 1.2 -0.1
v -0.2 0 -0.1
v -0.2 0.2 -0.1
v -0.2 0.4 -0.1
v -0.2 0.6 -0.1
v -0.2 0.8 -0.1
v -0.2 1 -0.1
v -0.2 1.2 -0.1
v 0.2 0 -0.1
v 0.2 0.2 -0.1
v 0.2 0.4 -0.1
v 0.2 0.6 -0.1
v 0.2 0.8 -0.1
v 0.2 1 -0.1
v 0.2 1.2 -0.1
v 0.4 0 -0.1
v 0.4 0.2 -0.1
v 0.4 0.4 -0.1
v 0.4 0.6 -0.1
v 0.4 0.8 -0.1
v 0.4 1 -0.1
v 0.4 1.2 -0.1
v 0.5 0 -0.1
v 0.5 0.1 -0.1
v 0.5 0.9 -0.1
v 0.5 1 -0.1
v 0.6 0.1 -0.1
v 0.6 0.2 -0.1
v 0.6 0.4 -0.1
v 0.6 0.6 -0.1
v 0.6 0.8 -0.1
v 0.6 0.9 -0.1
v -0.6 0.1 -0.3
v -0.6 0.2 -0.3
v -0.6 0.4 -0.3
v -0.6 0.6 -0.3
v -0.6 0.8 -0.3
v -0.6 0.9 -0.3
v -0.5 0 -0.3
v -0.5 0.1 -0.3
v -0.5 0.9 -0.3
v -0.5 1 -0.3
v -0.4 0 -0.3
v -0.4 0.2 -0.3
v -0.4 0.4 -0.3
v -0.4 0.6 -0.3
v -0.4 0.8 -0.3
v -0.4 1 -0.3
v -0.4 1.2 -0.3
v -0.2 0 -0.3
v -0.2 0.2 -0.3
v -0.2 0.4 -0.3
v -0.2 0.6 -0.3
v -0.2 0.8 -0.3
v -0.2 1 -0.3
v -0.2 1.2 -0.3
v 0.2 0 -0.3
v 0.2 0.2 -0.3
v 0.2 0.4 -0.3
v 0.2 0.6 -0.3
v 0.2 0.8 -0.3
v 0.2 1 -0.3
v 0.2 1.2 -0.3
v 0.4 0 -0.3
v 0.4 0.2 -0.3
v 0.4 0.4 -0.3
v 0.4 0.6 -0.3
v 0.4 0.8 -0.3
v 0.4 1 -0.3
v 0.4 1.2 -0.3
v 0.5 0 -0.3
v 0.5 0.1 -0.3
v 0.5 0.9 -0.3
v 0.5 1 -0.3
v 0.6 0.1 -0.3
v 0.6 0.2 -0.3
v 0.6 0.4 -0.3
v 0.6 0.6 -0.3
v 0.6 0.8 -0.3
v 0.6 0.9 -0.3
v -0.4 0.9 -0.4
v -0.4 1 -0.4
v -0.2 0.9 -0.4
v -0.2 1 -0.4
v 0.2 0.9 -0.4
v 0.2 1 -0.4
v 0.4 0.9 -0.4
v 0.4 1 -0.4
v -0.4 0 -0.5
v -0.4 0.2 -0.5
v -0.4 0.4 -0.5
v -0.4 0.6 -0.5
v -0.4 0.8 -0.5
v -0.4 0.9 -0.5
v -0.2 0 -0.5
v -0.2 0.2 -0.5
v -0.2 0.4 -0.5
v -0.2 0.6 -0.5
v -0.2 0.8 -0.5
v -0.2 0.9 -0.5
v 0.2 0 -0.5
v 0.2 0.2 -0.5
v 0.2 0.4 -0.5
v 0.2 0.6 -0.5
v 0.2 0.8 -0.5
v 0.2 0.9 -0.5
v 0.4 0 -0.5
v 0.4 0.2 -0.5
v 0.4 0.4 -0.5
v 0.4 0.6 -0.5
v 0.4 0.8 -0.5
v 0.4 0.9 -0.5
v -0.4 0 0.1
v -0.2 0 0.1
v 0.2 0 0.1
v 0.4 0 0.1
v -0.5 0 -0.1
v -0.4 0 -0.1
v -0.2 0 -0.1
v 0.2 0 -0.1
v 0.4 0 -0.1
v 0.5 0 -0.1
v -0.5 0 -0.3
v -0.4 0 -0.3
v -0.2 0 -0.3
v 0.2 0 -0.3
v 0.4 0 -0.3
v 0.5 0 -0.3
v -0.4 0 -0.5
v -0.2 0 -0.5
v 0.2 0 -0.5
v 0.4 0 -0.5
v -0.6 0.1 -0.1
v -0.5 0.1 -0.1
v 0.5 0.1 -0.1
v 0.6 0.1 -0.1
v -0.6 0.1 -0.3
v -0.5 0.1 -0.3
v 0.5 0.1 -0.3
v 0.6 0.1 -0.3
v -0.4 0.9 0.1
v -0.2 0.9 0.1
v 0.2 0.9 0.1
v 0.4 0.9 0.1
v -0.4 0.9 -1.49012e-008
v -0.2 0.9 -1.49012e-008
v 0.2 0.9 -1.49012e-008
v 0.4 0.9 -1.49012e-008
v -0.6 0.9 -0.1
v -0.5 0.9 -0.1
v 0.5 0.9 -0.1
v 0.6 0.9 -0.1
v -0.6 0.9 -0.3
v -0.5 0.9 -0.3
v 0.5 0.9 -0.3
v 0.6 0.9 -0.3
v -0.4 0.9 -0.4
v -0.2 0.9 -0.4
v 0.2 0.9 -0.4
v 0.4 0.9 -0.4
v -0.4 0.9 -0.5
v -0.2 0.9 -0.5
v 0.2 0.9 -0.5
v 0.4 0.9 -0.5
v -0.4 1 -1.49012e-008
v -0.2 1 -1.49012e-008
v 0.2 1 -1.49012e-008
v 0.4 1 -1.49012e-008
v -0.5 1 -0.1
v -0.4 1 -0.1
v -0.2 1 -0.1
v 0.2 1 -0.1
v 0.4 1 -0.1
v 0.5 1 -0.1
v -0.5 1 -0.3
v -0.4 1 -0.3
v -0.2 1 -0.3
v 0.2 1 -0.3
v 0.4 1 -0.3
v 0.5 1 -0.3
v -0.4 1 -0.4
v -0.2 1 -0.4
v 0.2 1 -0.4
v 0.4 1 -0.4
v -0.4 1.2 -0.1
v -0.2 1.2 -0.1
v 0.2 1.2 -0.1
v 0.4 1.2 -0.1
v -0.4 1.2 -0.3
v -0.2 1.2 -0.3
v 0.2 1.2 -0.3
v 0.4 1.2 -0.3

# faces
f 3/2/1 2/2/1 1/2/1
f 4/2/1 2/2/1 3/2/1
f 5/3/1 4/3/1 3/3/1
f 6/3/1 4/3/1 5/3/1
f 7/4/1 6/4/1 5/4/1
f 8/4/1 6/4/1 7/4/1
f 9/5/1 8/5/1 7/5/1
f 10/5/1 8/5/1 9/5/1
f 11/6/1 10/6/1 9/6/1
f 12/6/1 10/6/1 11/6/1
f 15/2/1 14/2/1 13/2/1
f 16/2/1 14/2/1 15/2/1
f 19/6/1 18/6/1 17/6/1
f 20/6/1 18/6/1 19/6/1
f 25/2/1 22/2/1 21/2/1
f 26/2/1 22/2/1 25/2/1
f 27/2/1 24/2/1 23/2/1
f 28/2/1 24/2/1 27/2/1
f 29/3/1 26/3/1 25/3/1
f 30/3/1 26/3/1 29/3/1
f 31/3/1 28/3/1 27/3/1
f 32/3/1 28/3/1 31/3/1
f 33/4/1 30/4/1 29/4/1
f 34/4/1 30/4/1 33/4/1
f 35/4/1 32/4/1 31/4/1
f 36/4/1 32/4/1 35/4/1
f 37/5/1 34/5/1 33/5/1
f 38/5/1 34/5/1 37/5/1
f 39/5/1 36/5/1 35/5/1
f 40/5/1 36/5/1 39/5/1
f 41/6/1 38/6/1 37/6/1
f 42/6/1 38/6/1 41/6/1
f 43/6/1 40/6/1 39/6/1
f 44/6/1 40/6/1 43/6/1
f 45/6/1 38/6/1 42/6/1
f 46/6/1 38/6/1 45/6/1
f 47/6/1 43/6/1 39/6/1
f 48/6/1 43/6/1 47/6/1
f 49/1/1 47/1/1 46/1/1
f 50/1/1 47/1/1 49/1/1
f 55/2/1 52/2/1 51/2/1
f 56/2/1 52/2/1 55/2/1
f 57/2/1 54/2/1 53/2/1
f 58/2/1 54/2/1 57/2/1
f 59/3/1 56/3/1 55/3/1
f 60/3/1 56/3/1 59/3/1
f 61/3/1 58/3/1 57/3/1
f 62/3/1 58/3/1 61/3/1
f 63/4/1 60/4/1 59/4/1
f 64/4/1 60/4/1 63/4/1
f 65/4/1 62/4/1 61/4/1
f 66/4/1 62/4/1 65/4/1
f 67/5/1 64/5/1 63/5/1
f 68/5/1 64/5/1 67/5/1
f 69/5/1 66/5/1 65/5/1
f 70/5/1 66/5/1 69/5/1
f 71/6/1 68/6/1 67/6/1
f 72/6/1 68/6/1 71/6/1
f 73/6/1 70/6/1 69/6/1
f 74/6/1 70/6/1 73/6/1
f 75/6/1 68/6/1 72/6/1
f 76/6/1 68/6/1 75/6/1
f 77/6/1 73/6/1 69/6/1
f 78/6/1 73/6/1 77/6/1
f 79/1/1 77/1/1 76/1/1
f 80/1/1 77/1/1 79/1/1
f 81/2/2 82/2/2 85/2/2
f 85/2/2 82/2/2 86/2/2
f 83/2/2 84/2/2 87/2/2
f 87/2/2 84/2/2 88/2/2
f 85/3/2 86/3/2 89/3/2
f 89/3/2 86/3/2 90/3/2
f 87/3/2 88/3/2 91/3/2
f 91/3/2 88/3/2 92/3/2
f 89/4/2 90/4/2 93/4/2
f 93/4/2 90/4/2 94/4/2
f 91/4/2 92/4/2 95/4/2
f 95/4/2 92/4/2 96/4/2
f 93/5/2 94/5/2 97/5/2
f 97/5/2 94/5/2 98/5/2
f 95/5/2 96/5/2 99/5/2
f 99/5/2 96/5/2 100/5/2
f 97/6/2 98/6/2 101/6/2
f 101/6/2 98/6/2 102/6/2
f 99/6/2 100/6/2 103/6/2
f 103/6/2 100/6/2 104/6/2
f 102/6/2 98/6/2 105/6/2
f 105/6/2 98/6/2 106/6/2
f 99/6/2 103/6/2 107/6/2
f 107/6/2 103/6/2 108/6/2
f 106/1/2 107/1/2 109/1/2
f 109/1/2 107/1/2 110/1/2
f 111/2/2 112/2/2 115/2/2
f 115/2/2 112/2/2 116/2/2
f 113/2/2 114/2/2 117/2/2
f 117/2/2 114/2/2 118/2/2
f 115/3/2 116/3/2 119/3/2
f 119/3/2 116/3/2 120/3/2
f 117/3/2 118/3/2 121/3/2
f 121/3/2 118/3/2 122/3/2
f 119/4/2 120/4/2 123/4/2
f 123/4/2 120/4/2 124/4/2
f 121/4/2 122/4/2 125/4/2
f 125/4/2 122/4/2 126/4/2
f 123/5/2 124/5/2 127/5/2
f 127/5/2 124/5/2 128/5/2
f 125/5/2 126/5/2 129/5/2
f 129/5/2 126/5/2 130/5/2
f 127/6/2 128/6/2 131/6/2
f 131/6/2 128/6/2 132/6/2
f 129/6/2 130/6/2 133/6/2
f 133/6/2 130/6/2 134/6/2
f 132/6/2 128/6/2 135/6/2
f 135/6/2 128/6/2 136/6/2
f 129/6/2 133/6/2 137/6/2
f 137/6/2 133/6/2 138/6/2
f 136/1/2 137/1/2 139/1/2
f 139/1/2 137/1/2 140/1/2
f 141/2/2 142/2/2 143/2/2
f 143/2/2 142/2/2 144/2/2
f 145/6/2 146/6/2 147/6/2
f 147/6/2 146/6/2 148/6/2
f 149/2/2 150/2/2 151/2/2
f 151/2/2 150/2/2 152/2/2
f 151/3/2 152/3/2 153/3/2
f 153/3/2 152/3/2 154/3/2
f 153/4/2 154/4/2 155/4/2
f 155/4/2 154/4/2 156/4/2
f 155/5/2 156/5/2 157/5/2
f 157/5/2 156/5/2 158/5/2
f 157/6/2 158/6/2 159/6/2
f 159/6/2 158/6/2 160/6/2
f 167/2/3 162/2/3 161/2/3
f 168/3/3 163/3/3 162/3/3
f 168/2/3 162/2/3 167/2/3
f 169/4/3 164/4/3 163/4/3
f 169/3/3 163/3/3 168/3/3
f 170/5/3 165/5/3 164/5/3
f 170/4/3 164/4/3 169/4/3
f 171/6/3 166/6/3 165/6/3
f 171/5/3 165/5/3 170/5/3
f 172/6/3 166/6/3 171/6/3
f 179/2/3 174/2/3 173/2/3
f 180/3/3 175/3/3 174/3/3
f 180/2/3 174/2/3 179/2/3
f 181/4/3 176/4/3 175/4/3
f 181/3/3 175/3/3 180/3/3
f 182/5/3 177/5/3 176/5/3
f 182/4/3 176/4/3 181/4/3
f 183/6/3 178/6/3 177/6/3
f 183/5/3 177/5/3 182/5/3
f 184/6/3 178/6/3 183/6/3
f 187/6/3 186/6/3 185/6/3
f 188/6/3 186/6/3 187/6/3
f 191/6/3 190/6/3 189/6/3
f 192/6/3 190/6/3 191/6/3
f 200/2/3 194/2/3 193/2/3
f 201/6/3 198/6/3 197/6/3
f 203/2/3 200/2/3 199/2/3
f 204/3/3 195/3/3 194/3/3
f 204/2/3 200/2/3 203/2/3
f 204/2/3 194/2/3 200/2/3
f 205/4/3 196/4/3 195/4/3
f 205/3/3 195/3/3 204/3/3
f 206/5/3 197/5/3 196/5/3
f 206/4/3 196/4/3 205/4/3
f 207/6/3 202/6/3 201/6/3
f 207/5/3 197/5/3 206/5/3
f 207/6/3 201/6/3 197/6/3
f 208/6/3 202/6/3 207/6/3
f 215/1/3 209/1/3 208/1/3
f 216/1/3 209/1/3 215/1/3
f 217/2/3 211/2/3 210/2/3
f 218/3/3 212/3/3 211/3/3
f 218/2/3 211/2/3 217/2/3
f 219/4/3 213/4/3 212/4/3
f 219/3/3 212/3/3 218/3/3
f 220/5/3 214/5/3 213/5/3
f 220/4/3 213/4/3 219/4/3
f 221/6/3 215/6/3 214/6/3
f 221/5/3 214/5/3 220/5/3
f 222/6/3 215/6/3 221/6/3
f 229/1/3 223/1/3 222/1/3
f 230/1/3 223/1/3 229/1/3
f 231/2/3 225/2/3 224/2/3
f 232/2/3 225/2/3 231/2/3
f 233/6/3 229/6/3 228/6/3
f 234/6/3 229/6/3 233/6/3
f 235/2/3 225/2/3 232/2/3
f 236/3/3 226/3/3 225/3/3
f 236/2/3 225/2/3 235/2/3
f 237/4/3 227/4/3 226/4/3
f 237/3/3 226/3/3 236/3/3
f 238/5/3 228/5/3 227/5/3
f 238/4/3 227/4/3 237/4/3
f 239/6/3 233/6/3 228/6/3
f 239/5/3 228/5/3 238/5/3
f 240/6/3 233/6/3 239/6/3
f 241/2/4 242/2/4 248/2/4
f 245/6/4 246/6/4 249/6/4
f 247/2/4 248/2/4 251/2/4
f 242/3/4 243/3/4 252/3/4
f 251/2/4 248/2/4 252/2/4
f 248/2/4 242/2/4 252/2/4
f 243/4/4 244/4/4 253/4/4
f 252/3/4 243/3/4 253/3/4
f 244/5/4 245/5/4 254/5/4
f 253/4/4 244/4/4 254/4/4
f 249/6/4 250/6/4 255/6/4
f 254/5/4 245/5/4 255/5/4
f 245/6/4 249/6/4 255/6/4
f 255/6/4 250/6/4 256/6/4
f 256/1/4 257/1/4 263/1/4
f 263/1/4 257/1/4 264/1/4
f 258/2/4 259/2/4 265/2/4
f 259/3/4 260/3/4 266/3/4
f 265/2/4 259/2/4 266/2/4
f 260/4/4 261/4/4 267/4/4
f 266/3/4 260/3/4 267/3/4
f 261/5/4 262/5/4 268/5/4
f 267/4/4 261/4/4 268/4/4
f 262/6/4 263/6/4 269/6/4
f 268/5/4 262/5/4 269/5/4
f 269/6/4 263/6/4 270/6/4
f 270/1/4 271/1/4 277/1/4
f 277/1/4 271/1/4 278/1/4
f 272/2/4 273/2/4 279/2/4
f 279/2/4 273/2/4 280/2/4
f 276/6/4 277/6/4 281/6/4
f 281/6/4 277/6/4 282/6/4
f 280/2/4 273/2/4 283/2/4
f 273/3/4 274/3/4 284/3/4
f 283/2/4 273/2/4 284/2/4
f 274/4/4 275/4/4 285/4/4
f 284/3/4 274/3/4 285/3/4
f 275/5/4 276/5/4 286/5/4
f 285/4/4 275/4/4 286/4/4
f 276/6/4 281/6/4 287/6/4
f 286/5/4 276/5/4 287/5/4
f 287/6/4 281/6/4 288/6/4
f 289/6/4 290/6/4 291/6/4
f 291/6/4 290/6/4 292/6/4
f 293/6/4 294/6/4 295/6/4
f 295/6/4 294/6/4 296/6/4
f 297/2/4 298/2/4 303/2/4
f 298/3/4 299/3/4 304/3/4
f 303/2/4 298/2/4 304/2/4
f 299/4/4 300/4/4 305/4/4
f 304/3/4 299/3/4 305/3/4
f 300/5/4 301/5/4 306/5/4
f 305/4/4 300/4/4 306/4/4
f 301/6/4 302/6/4 307/6/4
f 306/5/4 301/5/4 307/5/4
f 307/6/4 302/6/4 308/6/4
f 309/2/4 310/2/4 315/2/4
f 310/3/4 311/3/4 316/3/4
f 315/2/4 310/2/4 316/2/4
f 311/4/4 312/4/4 317/4/4
f 316/3/4 311/3/4 317/3/4
f 312/5/4 313/5/4 318/5/4
f 317/4/4 312/4/4 318/4/4
f 313/6/4 314/6/4 319/6/4
f 318/5/4 313/5/4 319/5/4
f 319/6/4 314/6/4 320/6/4
f 326/2/5 322/2/5 321/2/5
f 327/2/5 322/2/5 326/2/5
f 328/2/5 324/2/5 323/2/5
f 329/2/5 324/2/5 328/2/5
f 331/2/5 327/2/5 326/2/5
f 331/2/5 330/2/5 329/2/5
f 331/2/5 329/2/5 328/2/5
f 331/2/5 328/2/5 327/2/5
f 331/2/5 326/2/5 325/2/5
f 332/2/5 330/2/5 331/2/5
f 333/2/5 330/2/5 332/2/5
f 334/2/5 330/2/5 333/2/5
f 335/2/5 330/2/5 334/2/5
f 336/2/5 330/2/5 335/2/5
f 337/2/5 333/2/5 332/2/5
f 338/2/5 333/2/5 337/2/5
f 339/2/5 335/2/5 334/2/5
f 340/2/5 335/2/5 339/2/5
f 345/2/5 342/2/5 341/2/5
f 346/2/5 342/2/5 345/2/5
f 347/2/5 344/2/5 343/2/5
f 348/2/5 344/2/5 347/2/5
f 349/6/6 350/6/6 353/6/6
f 353/6/6 350/6/6 354/6/6
f 351/6/6 352/6/6 355/6/6
f 355/6/6 352/6/6 356/6/6
f 357/6/6 358/6/6 361/6/6
f 361/6/6 358/6/6 362/6/6
f 359/6/6 360/6/6 363/6/6
f 363/6/6 360/6/6 364/6/6
f 365/6/6 366/6/6 369/6/6
f 369/6/6 366/6/6 370/6/6
f 367/6/6 368/6/6 371/6/6
f 371/6/6 368/6/6 372/6/6
f 373/6/6 374/6/6 378/6/6
f 378/6/6 374/6/6 379/6/6
f 375/6/6 376/6/6 380/6/6
f 380/6/6 376/6/6 381/6/6
f 377/6/6 378/6/6 383/6/6
f 383/6/6 378/6/6 384/6/6
f 379/6/6 380/6/6 385/6/6
f 385/6/6 380/6/6 386/6/6
f 381/6/6 382/6/6 387/6/6
f 387/6/6 382/6/6 388/6/6
f 384/6/6 385/6/6 389/6/6
f 389/6/6 385/6/6 390/6/6
f 386/6/6 387/6/6 391/6/6
f 391/6/6 387/6/6 392/6/6
f 393/1/6 394/1/6 397/1/6
f 397/1/6 394/1/6 398/1/6
f 395/1/6 396/1/6 399/1/6
f 399/1/6 396/1/6 400/1/6
