# MagicaVoxel @ Ephtracy

# group
o 

# material
mtllib PlayerDiablo.mtl
usemtl palette

# normals
vn -1 0 0
vn 1 0 0
vn 0 0 1
vn 0 0 -1
vn 0 -1 0
vn 0 1 0

# texcoords
vt 0.767578 0.5
vt 0.845703 0.5
vt 0.958984 0.5
vt 0.994141 0.5

# verts
v -1.1 0 0.5
v -1.1 0 -0.5
v -1.1 0.2 0.5
v -1.1 0.2 -0.5
v -1.1 1 0.3
v -1.1 1 -0.3
v -1.1 1.2 0.3
v -1.1 1.2 0.1
v -1.1 1.2 -0.1
v -1.1 1.2 -0.3
v -1.1 1.4 0.1
v -1.1 1.4 -0.1
v -0.9 0 0.7
v -0.9 0 0.5
v -0.9 0 -0.5
v -0.9 0 -0.7
v -0.9 0.2 0.7
v -0.9 0.2 0.5
v -0.9 0.2 0.3
v -0.9 0.2 -0.3
v -0.9 0.2 -0.5
v -0.9 0.2 -0.7
v -0.9 0.4 0.5
v -0.9 0.4 0.3
v -0.9 1 0.5
v -0.9 1 0.3
v -0.9 1 -0.3
v -0.9 1.4 0.1
v -0.9 1.4 -0.1
v -0.9 1.6 0.1
v -0.9 1.6 -0.1
v -0.8 0.6 0.7
v -0.8 0.6 0.5
v -0.8 0.8 0.7
v -0.8 0.8 0.5
v -0.7 0.2 0.5
v -0.7 0.2 0.3
v -0.7 0.2 -0.3
v -0.7 0.2 -0.5
v -0.7 0.4 0.5
v -0.7 0.4 0.3
v -0.7 0.5 0.7
v -0.7 0.5 0.5
v -0.7 0.6 0.7
v -0.7 0.6 0.5
v -0.7 0.8 0.7
v -0.7 0.8 0.5
v -0.7 0.9 0.7
v -0.7 0.9 0.5
v -0.7 1 0.3
v -0.7 1 -0.3
v -0.7 1 -0.5
v -0.7 1.2 0.3
v -0.7 1.2 -0.3
v -0.2 0.6 0.7
v -0.2 0.6 0.5
v -0.2 0.8 0.7
v -0.2 0.8 0.5
v -0.1 0.5 0.7
v -0.1 0.5 0.5
v -0.1 0.6 0.7
v -0.1 0.6 0.5
v -0.1 0.8 0.7
v -0.1 0.8 0.5
v -0.1 0.9 0.7
v -0.1 0.9 0.5
v 0.1 1.4 0.1
v 0.1 1.4 -0.1
v 0.1 1.6 0.1
v 0.1 1.6 -0.1
v 0.3 1 0.3
v 0.3 1 -0.3
v 0.3 1.2 0.3
v 0.3 1.2 0.1
v 0.3 1.2 -0.1
v 0.3 1.2 -0.3
v 0.3 1.4 0.1
v 0.3 1.4 -0.1
v -0.9 1 0.3
v -0.9 1 -0.3
v -0.9 1.2 0.3
v -0.9 1.2 0.1
v -0.9 1.2 -0.1
v -0.9 1.2 -0.3
v -0.9 1.4 0.1
v -0.9 1.4 -0.1
v -0.7 1.4 0.1
v -0.7 1.4 -0.1
v -0.7 1.6 0.1
v -0.7 1.6 -0.1
v -0.5 0.5 0.7
v -0.5 0.5 0.5
v -0.5 0.6 0.7
v -0.5 0.6 0.5
v -0.5 0.8 0.7
v -0.5 0.8 0.5
v -0.5 0.9 0.7
v -0.5 0.9 0.5
v -0.4 0.6 0.7
v -0.4 0.6 0.5
v -0.4 0.8 0.7
v -0.4 0.8 0.5
v 0.1 0.2 0.5
v 0.1 0.2 0.3
v 0.1 0.2 -0.3
v 0.1 0.2 -0.5
v 0.1 0.4 0.5
v 0.1 0.4 0.3
v 0.1 0.5 0.7
v 0.1 0.5 0.5
v 0.1 0.6 0.7
v 0.1 0.6 0.5
v 0.1 0.8 0.7
v 0.1 0.8 0.5
v 0.1 0.9 0.7
v 0.1 0.9 0.5
v 0.1 1 0.3
v 0.1 1 -0.3
v 0.1 1 -0.5
v 0.1 1.2 0.3
v 0.1 1.2 -0.3
v 0.2 0.6 0.7
v 0.2 0.6 0.5
v 0.2 0.8 0.7
v 0.2 0.8 0.5
v 0.3 0 0.7
v 0.3 0 0.5
v 0.3 0 -0.5
v 0.3 0 -0.7
v 0.3 0.2 0.7
v 0.3 0.2 0.5
v 0.3 0.2 0.3
v 0.3 0.2 -0.3
v 0.3 0.2 -0.5
v 0.3 0.2 -0.7
v 0.3 0.4 0.5
v 0.3 0.4 0.3
v 0.3 1 0.5
v 0.3 1 0.3
v 0.3 1 -0.3
v 0.3 1.4 0.1
v 0.3 1.4 -0.1
v 0.3 1.6 0.1
v 0.3 1.6 -0.1
v 0.5 0 0.5
v 0.5 0 -0.5
v 0.5 0.2 0.5
v 0.5 0.2 -0.5
v 0.5 1 0.3
v 0.5 1 -0.3
v 0.5 1.2 0.3
v 0.5 1.2 0.1
v 0.5 1.2 -0.1
v 0.5 1.2 -0.3
v 0.5 1.4 0.1
v 0.5 1.4 -0.1
v -0.9 0 0.7
v -0.9 0.2 0.7
v -0.8 0.6 0.7
v -0.8 0.8 0.7
v -0.7 0.5 0.7
v -0.7 0.6 0.7
v -0.7 0.8 0.7
v -0.7 0.9 0.7
v -0.5 0.5 0.7
v -0.5 0.6 0.7
v -0.5 0.8 0.7
v -0.5 0.9 0.7
v -0.4 0.6 0.7
v -0.4 0.8 0.7
v -0.2 0.6 0.7
v -0.2 0.8 0.7
v -0.1 0.5 0.7
v -0.1 0.6 0.7
v -0.1 0.8 0.7
v -0.1 0.9 0.7
v 0.1 0.5 0.7
v 0.1 0.6 0.7
v 0.1 0.8 0.7
v 0.1 0.9 0.7
v 0.2 0.6 0.7
v 0.2 0.8 0.7
v 0.3 0 0.7
v 0.3 0.2 0.7
v -1.1 0 0.5
v -1.1 0.2 0.5
v -0.9 0 0.5
v -0.9 0.2 0.5
v -0.9 0.4 0.5
v -0.9 1 0.5
v -0.8 0.6 0.5
v -0.8 0.8 0.5
v -0.7 0.2 0.5
v -0.7 0.4 0.5
v -0.7 0.5 0.5
v -0.7 0.6 0.5
v -0.7 0.8 0.5
v -0.7 0.9 0.5
v -0.5 0.5 0.5
v -0.5 0.6 0.5
v -0.5 0.8 0.5
v -0.5 0.9 0.5
v -0.4 0.6 0.5
v -0.4 0.8 0.5
v -0.2 0.6 0.5
v -0.2 0.8 0.5
v -0.1 0.5 0.5
v -0.1 0.6 0.5
v -0.1 0.8 0.5
v -0.1 0.9 0.5
v 0.1 0.2 0.5
v 0.1 0.4 0.5
v 0.1 0.5 0.5
v 0.1 0.6 0.5
v 0.1 0.8 0.5
v 0.1 0.9 0.5
v 0.2 0.6 0.5
v 0.2 0.8 0.5
v 0.3 0 0.5
v 0.3 0.2 0.5
v 0.3 0.4 0.5
v 0.3 1 0.5
v 0.5 0 0.5
v 0.5 0.2 0.5
v -1.1 1 0.3
v -1.1 1.2 0.3
v -0.9 0.2 0.3
v -0.9 0.4 0.3
v -0.9 1 0.3
v -0.9 1.2 0.3
v -0.7 0.2 0.3
v -0.7 0.4 0.3
v -0.7 1 0.3
v -0.7 1.2 0.3
v 0.1 0.2 0.3
v 0.1 0.4 0.3
v 0.1 1 0.3
v 0.1 1.2 0.3
v 0.3 0.2 0.3
v 0.3 0.4 0.3
v 0.3 1 0.3
v 0.3 1.2 0.3
v 0.5 1 0.3
v 0.5 1.2 0.3
v -1.1 1.2 0.1
v -1.1 1.4 0.1
v -0.9 1.2 0.1
v -0.9 1.4 0.1
v -0.9 1.6 0.1
v -0.7 1.4 0.1
v -0.7 1.6 0.1
v 0.1 1.4 0.1
v 0.1 1.6 0.1
v 0.3 1.2 0.1
v 0.3 1.4 0.1
v 0.3 1.6 0.1
v 0.5 1.2 0.1
v 0.5 1.4 0.1
v -1.1 1.2 -0.1
v -1.1 1.4 -0.1
v -0.9 1.2 -0.1
v -0.9 1.4 -0.1
v -0.9 1.6 -0.1
v -0.7 1.4 -0.1
v -0.7 1.6 -0.1
v 0.1 1.4 -0.1
v 0.1 1.6 -0.1
v 0.3 1.2 -0.1
v 0.3 1.4 -0.1
v 0.3 1.6 -0.1
v 0.5 1.2 -0.1
v 0.5 1.4 -0.1
v -1.1 1 -0.3
v -1.1 1.2 -0.3
v -0.9 0.2 -0.3
v -0.9 1 -0.3
v -0.9 1.2 -0.3
v -0.7 0.2 -0.3
v -0.7 1 -0.3
v -0.7 1.2 -0.3
v 0.1 0.2 -0.3
v 0.1 1 -0.3
v 0.1 1.2 -0.3
v 0.3 0.2 -0.3
v 0.3 1 -0.3
v 0.3 1.2 -0.3
v 0.5 1 -0.3
v 0.5 1.2 -0.3
v -1.1 0 -0.5
v -1.1 0.2 -0.5
v -0.9 0 -0.5
v -0.9 0.2 -0.5
v -0.7 0.2 -0.5
v -0.7 1 -0.5
v 0.1 0.2 -0.5
v 0.1 1 -0.5
v 0.3 0 -0.5
v 0.3 0.2 -0.5
v 0.5 0 -0.5
v 0.5 0.2 -0.5
v -0.9 0 -0.7
v -0.9 0.2 -0.7
v 0.3 0 -0.7
v 0.3 0.2 -0.7
v -0.9 0 0.7
v 0.3 0 0.7
v -1.1 0 0.5
v -0.9 0 0.5
v 0.3 0 0.5
v 0.5 0 0.5
v -1.1 0 -0.5
v -0.9 0 -0.5
v 0.3 0 -0.5
v 0.5 0 -0.5
v -0.9 0 -0.7
v 0.3 0 -0.7
v -0.9 0.4 0.5
v -0.7 0.4 0.5
v 0.1 0.4 0.5
v 0.3 0.4 0.5
v -0.9 0.4 0.3
v -0.7 0.4 0.3
v 0.1 0.4 0.3
v 0.3 0.4 0.3
v -0.7 0.5 0.7
v -0.5 0.5 0.7
v -0.1 0.5 0.7
v 0.1 0.5 0.7
v -0.7 0.5 0.5
v -0.5 0.5 0.5
v -0.1 0.5 0.5
v 0.1 0.5 0.5
v -0.8 0.6 0.7
v -0.7 0.6 0.7
v -0.5 0.6 0.7
v -0.4 0.6 0.7
v -0.2 0.6 0.7
v -0.1 0.6 0.7
v 0.1 0.6 0.7
v 0.2 0.6 0.7
v -0.8 0.6 0.5
v -0.7 0.6 0.5
v -0.5 0.6 0.5
v -0.4 0.6 0.5
v -0.2 0.6 0.5
v -0.1 0.6 0.5
v 0.1 0.6 0.5
v 0.2 0.6 0.5
v -1.1 1 0.3
v -0.9 1 0.3
v 0.3 1 0.3
v 0.5 1 0.3
v -1.1 1 -0.3
v -0.9 1 -0.3
v 0.3 1 -0.3
v 0.5 1 -0.3
v -0.9 1.4 0.1
v -0.7 1.4 0.1
v 0.1 1.4 0.1
v 0.3 1.4 0.1
v -0.9 1.4 -0.1
v -0.7 1.4 -0.1
v 0.1 1.4 -0.1
v 0.3 1.4 -0.1
v -0.9 0.2 0.7
v 0.3 0.2 0.7
v -1.1 0.2 0.5
v -0.9 0.2 0.5
v -0.7 0.2 0.5
v 0.1 0.2 0.5
v 0.3 0.2 0.5
v 0.5 0.2 0.5
v -0.9 0.2 0.3
v -0.7 0.2 0.3
v 0.1 0.2 0.3
v 0.3 0.2 0.3
v -0.9 0.2 -0.3
v -0.7 0.2 -0.3
v 0.1 0.2 -0.3
v 0.3 0.2 -0.3
v -1.1 0.2 -0.5
v -0.9 0.2 -0.5
v -0.7 0.2 -0.5
v 0.1 0.2 -0.5
v 0.3 0.2 -0.5
v 0.5 0.2 -0.5
v -0.9 0.2 -0.7
v 0.3 0.2 -0.7
v -0.8 0.8 0.7
v -0.7 0.8 0.7
v -0.5 0.8 0.7
v -0.4 0.8 0.7
v -0.2 0.8 0.7
v -0.1 0.8 0.7
v 0.1 0.8 0.7
v 0.2 0.8 0.7
v -0.8 0.8 0.5
v -0.7 0.8 0.5
v -0.5 0.8 0.5
v -0.4 0.8 0.5
v -0.2 0.8 0.5
v -0.1 0.8 0.5
v 0.1 0.8 0.5
v 0.2 0.8 0.5
v -0.7 0.9 0.7
v -0.5 0.9 0.7
v -0.1 0.9 0.7
v 0.1 0.9 0.7
v -0.7 0.9 0.5
v -0.5 0.9 0.5
v -0.1 0.9 0.5
v 0.1 0.9 0.5
v -0.9 1 0.5
v 0.3 1 0.5
v -0.9 1 0.3
v -0.7 1 0.3
v 0.1 1 0.3
v 0.3 1 0.3
v -0.9 1 -0.3
v -0.7 1 -0.3
v 0.1 1 -0.3
v 0.3 1 -0.3
v -0.7 1 -0.5
v 0.1 1 -0.5
v -1.1 1.2 0.3
v -0.9 1.2 0.3
v -0.7 1.2 0.3
v 0.1 1.2 0.3
v 0.3 1.2 0.3
v 0.5 1.2 0.3
v -1.1 1.2 0.1
v -0.9 1.2 0.1
v 0.3 1.2 0.1
v 0.5 1.2 0.1
v -1.1 1.2 -0.1
v -0.9 1.2 -0.1
v 0.3 1.2 -0.1
v 0.5 1.2 -0.1
v -1.1 1.2 -0.3
v -0.9 1.2 -0.3
v -0.7 1.2 -0.3
v 0.1 1.2 -0.3
v 0.3 1.2 -0.3
v 0.5 1.2 -0.3
v -1.1 1.4 0.1
v -0.9 1.4 0.1
v 0.3 1.4 0.1
v 0.5 1.4 0.1
v -1.1 1.4 -0.1
v -0.9 1.4 -0.1
v 0.3 1.4 -0.1
v 0.5 1.4 -0.1
v -0.9 1.6 0.1
v -0.7 1.6 0.1
v 0.1 1.6 0.1
v 0.3 1.6 0.1
v -0.9 1.6 -0.1
v -0.7 1.6 -0.1
v 0.1 1.6 -0.1
v 0.3 1.6 -0.1

# faces
f 3/2/1 2/2/1 1/2/1
f 4/2/1 2/2/1 3/2/1
f 7/4/1 6/4/1 5/4/1
f 8/4/1 6/4/1 7/4/1
f 9/4/1 6/4/1 8/4/1
f 10/4/1 6/4/1 9/4/1
f 11/4/1 9/4/1 8/4/1
f 12/4/1 9/4/1 11/4/1
f 17/2/1 14/2/1 13/2/1
f 18/2/1 14/2/1 17/2/1
f 21/2/1 16/2/1 15/2/1
f 22/2/1 16/2/1 21/2/1
f 24/2/1 20/2/1 19/2/1
f 25/2/1 24/2/1 23/2/1
f 26/2/1 20/2/1 24/2/1
f 26/2/1 24/2/1 25/2/1
f 27/2/1 20/2/1 26/2/1
f 30/3/1 29/3/1 28/3/1
f 31/3/1 29/3/1 30/3/1
f 34/4/1 33/4/1 32/4/1
f 35/4/1 33/4/1 34/4/1
f 40/2/1 37/2/1 36/2/1
f 41/2/1 37/2/1 40/2/1
f 44/4/1 43/4/1 42/4/1
f 45/4/1 43/4/1 44/4/1
f 48/4/1 47/4/1 46/4/1
f 49/4/1 47/4/1 48/4/1
f 51/2/1 39/2/1 38/2/1
f 52/2/1 39/2/1 51/2/1
f 53/2/1 51/2/1 50/2/1
f 54/2/1 51/2/1 53/2/1
f 57/4/1 56/4/1 55/4/1
f 58/4/1 56/4/1 57/4/1
f 61/4/1 60/4/1 59/4/1
f 62/4/1 60/4/1 61/4/1
f 65/4/1 64/4/1 63/4/1
f 66/4/1 64/4/1 65/4/1
f 69/3/1 68/3/1 67/3/1
f 70/3/1 68/3/1 69/3/1
f 73/4/1 72/4/1 71/4/1
f 74/4/1 72/4/1 73/4/1
f 75/4/1 72/4/1 74/4/1
f 76/4/1 72/4/1 75/4/1
f 77/4/1 75/4/1 74/4/1
f 78/4/1 75/4/1 77/4/1
f 79/4/2 80/4/2 81/4/2
f 81/4/2 80/4/2 82/4/2
f 82/4/2 80/4/2 83/4/2
f 83/4/2 80/4/2 84/4/2
f 82/4/2 83/4/2 85/4/2
f 85/4/2 83/4/2 86/4/2
f 87/3/2 88/3/2 89/3/2
f 89/3/2 88/3/2 90/3/2
f 91/4/2 92/4/2 93/4/2
f 93/4/2 92/4/2 94/4/2
f 95/4/2 96/4/2 97/4/2
f 97/4/2 96/4/2 98/4/2
f 99/4/2 100/4/2 101/4/2
f 101/4/2 100/4/2 102/4/2
f 103/2/2 104/2/2 107/2/2
f 107/2/2 104/2/2 108/2/2
f 109/4/2 110/4/2 111/4/2
f 111/4/2 110/4/2 112/4/2
f 113/4/2 114/4/2 115/4/2
f 115/4/2 114/4/2 116/4/2
f 105/2/2 106/2/2 118/2/2
f 118/2/2 106/2/2 119/2/2
f 117/2/2 118/2/2 120/2/2
f 120/2/2 118/2/2 121/2/2
f 122/4/2 123/4/2 124/4/2
f 124/4/2 123/4/2 125/4/2
f 126/2/2 127/2/2 130/2/2
f 130/2/2 127/2/2 131/2/2
f 128/2/2 129/2/2 134/2/2
f 134/2/2 129/2/2 135/2/2
f 132/2/2 133/2/2 137/2/2
f 136/2/2 137/2/2 138/2/2
f 137/2/2 133/2/2 139/2/2
f 138/2/2 137/2/2 139/2/2
f 139/2/2 133/2/2 140/2/2
f 141/3/2 142/3/2 143/3/2
f 143/3/2 142/3/2 144/3/2
f 145/2/2 146/2/2 147/2/2
f 147/2/2 146/2/2 148/2/2
f 149/4/2 150/4/2 151/4/2
f 151/4/2 150/4/2 152/4/2
f 152/4/2 150/4/2 153/4/2
f 153/4/2 150/4/2 154/4/2
f 152/4/2 153/4/2 155/4/2
f 155/4/2 153/4/2 156/4/2
f 162/4/3 160/4/3 159/4/3
f 163/4/3 160/4/3 162/4/3
f 165/4/3 162/4/3 161/4/3
f 166/3/3 163/3/3 162/3/3
f 166/4/3 162/4/3 165/4/3
f 167/4/3 164/4/3 163/4/3
f 167/3/3 163/3/3 166/3/3
f 168/4/3 164/4/3 167/4/3
f 169/4/3 167/4/3 166/4/3
f 170/4/3 167/4/3 169/4/3
f 174/4/3 172/4/3 171/4/3
f 175/4/3 172/4/3 174/4/3
f 177/4/3 174/4/3 173/4/3
f 178/3/3 175/3/3 174/3/3
f 178/4/3 174/4/3 177/4/3
f 179/4/3 176/4/3 175/4/3
f 179/3/3 175/3/3 178/3/3
f 180/4/3 176/4/3 179/4/3
f 181/4/3 179/4/3 178/4/3
f 182/4/3 179/4/3 181/4/3
f 183/2/3 158/2/3 157/2/3
f 184/2/3 158/2/3 183/2/3
f 187/2/3 186/2/3 185/2/3
f 188/2/3 186/2/3 187/2/3
f 191/2/3 190/2/3 189/2/3
f 192/2/3 190/2/3 191/2/3
f 194/2/3 191/2/3 189/2/3
f 195/2/3 191/2/3 194/2/3
f 196/2/3 191/2/3 195/2/3
f 197/2/3 190/2/3 192/2/3
f 198/2/3 190/2/3 197/2/3
f 199/2/3 194/2/3 193/2/3
f 199/2/3 195/2/3 194/2/3
f 202/2/3 190/2/3 198/2/3
f 203/2/3 200/2/3 199/2/3
f 204/2/3 202/2/3 201/2/3
f 205/2/3 203/2/3 199/2/3
f 205/2/3 204/2/3 203/2/3
f 206/2/3 202/2/3 204/2/3
f 206/2/3 204/2/3 205/2/3
f 207/2/3 205/2/3 199/2/3
f 207/2/3 199/2/3 193/2/3
f 208/2/3 205/2/3 207/2/3
f 209/2/3 202/2/3 206/2/3
f 210/2/3 190/2/3 202/2/3
f 210/2/3 202/2/3 209/2/3
f 211/2/3 207/2/3 193/2/3
f 212/2/3 207/2/3 211/2/3
f 213/2/3 207/2/3 212/2/3
f 216/2/3 190/2/3 210/2/3
f 217/2/3 214/2/3 213/2/3
f 217/2/3 213/2/3 212/2/3
f 218/2/3 216/2/3 215/2/3
f 221/2/3 217/2/3 212/2/3
f 221/2/3 218/2/3 217/2/3
f 222/2/3 190/2/3 216/2/3
f 222/2/3 218/2/3 221/2/3
f 222/2/3 216/2/3 218/2/3
f 223/2/3 220/2/3 219/2/3
f 224/2/3 220/2/3 223/2/3
f 229/4/3 226/4/3 225/4/3
f 230/4/3 226/4/3 229/4/3
f 231/2/3 228/2/3 227/2/3
f 232/2/3 228/2/3 231/2/3
f 237/2/3 234/2/3 233/2/3
f 238/2/3 234/2/3 237/2/3
f 239/2/3 236/2/3 235/2/3
f 240/2/3 236/2/3 239/2/3
f 243/4/3 242/4/3 241/4/3
f 244/4/3 242/4/3 243/4/3
f 247/4/3 246/4/3 245/4/3
f 248/4/3 246/4/3 247/4/3
f 250/3/3 249/3/3 248/3/3
f 251/3/3 249/3/3 250/3/3
f 255/3/3 253/3/3 252/3/3
f 256/3/3 253/3/3 255/3/3
f 257/4/3 255/4/3 254/4/3
f 258/4/3 255/4/3 257/4/3
f 259/4/4 260/4/4 261/4/4
f 261/4/4 260/4/4 262/4/4
f 262/3/4 263/3/4 264/3/4
f 264/3/4 263/3/4 265/3/4
f 266/3/4 267/3/4 269/3/4
f 269/3/4 267/3/4 270/3/4
f 268/4/4 269/4/4 271/4/4
f 271/4/4 269/4/4 272/4/4
f 273/4/4 274/4/4 276/4/4
f 276/4/4 274/4/4 277/4/4
f 275/2/4 276/2/4 278/2/4
f 278/2/4 276/2/4 279/2/4
f 279/2/4 280/2/4 282/2/4
f 282/2/4 280/2/4 283/2/4
f 281/2/4 282/2/4 284/2/4
f 284/2/4 282/2/4 285/2/4
f 285/4/4 286/4/4 287/4/4
f 287/4/4 286/4/4 288/4/4
f 289/2/4 290/2/4 291/2/4
f 291/2/4 290/2/4 292/2/4
f 293/2/4 294/2/4 295/2/4
f 295/2/4 294/2/4 296/2/4
f 297/2/4 298/2/4 299/2/4
f 299/2/4 298/2/4 300/2/4
f 301/2/4 302/2/4 303/2/4
f 303/2/4 302/2/4 304/2/4
f 308/2/5 306/2/5 305/2/5
f 309/2/5 306/2/5 308/2/5
f 311/2/5 308/2/5 307/2/5
f 311/2/5 310/2/5 309/2/5
f 311/2/5 309/2/5 308/2/5
f 312/2/5 310/2/5 311/2/5
f 313/2/5 310/2/5 312/2/5
f 314/2/5 310/2/5 313/2/5
f 315/2/5 313/2/5 312/2/5
f 316/2/5 313/2/5 315/2/5
f 321/2/5 318/2/5 317/2/5
f 322/2/5 318/2/5 321/2/5
f 323/2/5 320/2/5 319/2/5
f 324/2/5 320/2/5 323/2/5
f 329/4/5 326/4/5 325/4/5
f 330/4/5 326/4/5 329/4/5
f 331/4/5 328/4/5 327/4/5
f 332/4/5 328/4/5 331/4/5
f 341/4/5 334/4/5 333/4/5
f 342/4/5 334/4/5 341/4/5
f 343/4/5 336/4/5 335/4/5
f 344/4/5 336/4/5 343/4/5
f 345/4/5 338/4/5 337/4/5
f 346/4/5 338/4/5 345/4/5
f 347/4/5 340/4/5 339/4/5
f 348/4/5 340/4/5 347/4/5
f 353/4/5 350/4/5 349/4/5
f 354/4/5 350/4/5 353/4/5
f 355/4/5 352/4/5 351/4/5
f 356/4/5 352/4/5 355/4/5
f 361/3/5 358/3/5 357/3/5
f 362/3/5 358/3/5 361/3/5
f 363/3/5 360/3/5 359/3/5
f 364/3/5 360/3/5 363/3/5
f 365/2/6 366/2/6 368/2/6
f 368/2/6 366/2/6 369/2/6
f 369/2/6 366/2/6 370/2/6
f 370/2/6 366/2/6 371/2/6
f 367/2/6 368/2/6 373/2/6
f 368/2/6 369/2/6 373/2/6
f 373/2/6 369/2/6 374/2/6
f 371/2/6 372/2/6 375/2/6
f 370/2/6 371/2/6 375/2/6
f 375/2/6 372/2/6 376/2/6
f 367/2/6 373/2/6 377/2/6
f 376/2/6 372/2/6 380/2/6
f 377/2/6 378/2/6 381/2/6
f 367/2/6 377/2/6 381/2/6
f 381/2/6 378/2/6 382/2/6
f 382/2/6 378/2/6 383/2/6
f 379/2/6 380/2/6 384/2/6
f 380/2/6 372/2/6 385/2/6
f 384/2/6 380/2/6 385/2/6
f 385/2/6 372/2/6 386/2/6
f 382/2/6 383/2/6 387/2/6
f 383/2/6 384/2/6 387/2/6
f 384/2/6 385/2/6 387/2/6
f 387/2/6 385/2/6 388/2/6
f 389/4/6 390/4/6 397/4/6
f 397/4/6 390/4/6 398/4/6
f 391/4/6 392/4/6 399/4/6
f 399/4/6 392/4/6 400/4/6
f 393/4/6 394/4/6 401/4/6
f 401/4/6 394/4/6 402/4/6
f 395/4/6 396/4/6 403/4/6
f 403/4/6 396/4/6 404/4/6
f 405/4/6 406/4/6 409/4/6
f 409/4/6 406/4/6 410/4/6
f 407/4/6 408/4/6 411/4/6
f 411/4/6 408/4/6 412/4/6
f 413/2/6 414/2/6 415/2/6
f 415/2/6 414/2/6 416/2/6
f 416/2/6 414/2/6 417/2/6
f 417/2/6 414/2/6 418/2/6
f 415/2/6 416/2/6 419/2/6
f 419/2/6 416/2/6 420/2/6
f 417/2/6 418/2/6 421/2/6
f 421/2/6 418/2/6 422/2/6
f 420/2/6 421/2/6 423/2/6
f 423/2/6 421/2/6 424/2/6
f 425/4/6 426/4/6 431/4/6
f 431/4/6 426/4/6 432/4/6
f 429/4/6 430/4/6 433/4/6
f 433/4/6 430/4/6 434/4/6
f 435/4/6 436/4/6 439/4/6
f 439/4/6 436/4/6 440/4/6
f 427/2/6 428/2/6 441/2/6
f 441/2/6 428/2/6 442/2/6
f 437/4/6 438/4/6 443/4/6
f 443/4/6 438/4/6 444/4/6
f 445/4/6 446/4/6 449/4/6
f 449/4/6 446/4/6 450/4/6
f 447/4/6 448/4/6 451/4/6
f 451/4/6 448/4/6 452/4/6
f 453/3/6 454/3/6 457/3/6
f 457/3/6 454/3/6 458/3/6
f 455/3/6 456/3/6 459/3/6
f 459/3/6 456/3/6 460/3/6
